<?xml version="1.0" encoding="utf-8"?>
<!-- Generator: Adobe Illustrator 22.1.0, SVG Export Plug-In . SVG Version: 6.00 Build 0)  -->
<svg version="1.1" id="Layer_1" xmlns="http://www.w3.org/2000/svg" xmlns:xlink="http://www.w3.org/1999/xlink" x="0px" y="0px"
	 viewBox="0 0 700 700" style="enable-background:new 0 0 700 700;" xml:space="preserve">
<style type="text/css">
	.st0{clip-path:url(#SVGID_2_);fill:none;stroke:#6BCBDA;stroke-width:10;stroke-miterlimit:10;}
	.st1{clip-path:url(#SVGID_2_);fill:#EF4136;}
</style>
<g>
	<defs>
		<rect id="SVGID_1_" width="700" height="700"/>
	</defs>
	<clipPath id="SVGID_2_">
		<use xlink:href="#SVGID_1_"  style="overflow:visible;"/>
	</clipPath>
	<path class="st0" d="M180.1,84.4c17.1,71.4,43.2,131.1,82.5,174.1C185.3,405,124.3,533.3,129.2,588.4c1.4,16.2,16,28.2,32.3,27.1
		c82.3-5.5,158.9-63.1,222.6-144.8c22.9-29.4,37-64.9,39.7-102.2c2.3-32.2-0.3-60.5-6.2-86.2c-2.1-9-3.2-18.1-3.2-27.3v-13.8
		c72.1-36,122-86.8,156.8-147.6"/>
	<line class="st0" x1="261.1" y1="261.4" x2="413.2" y2="242.3"/>
	<path class="st1" d="M287.2,382.3c0,12-9.7,21.7-21.7,21.7c-12,0-21.7-9.7-21.7-21.7c0-12,9.7-21.7,21.7-21.7
		C277.4,360.5,287.2,370.3,287.2,382.3"/>
</g>
</svg>
