<?xml version="1.0" encoding="utf-8"?>
<!-- Generator: Adobe Illustrator 22.1.0, SVG Export Plug-In . SVG Version: 6.00 Build 0)  -->
<svg version="1.1" id="Layer_1" xmlns="http://www.w3.org/2000/svg" xmlns:xlink="http://www.w3.org/1999/xlink" x="0px" y="0px"
	 viewBox="0 0 690.8 690.8" style="enable-background:new 0 0 690.8 690.8;" xml:space="preserve">
<style type="text/css">
	.st0{clip-path:url(#SVGID_2_);fill:none;stroke:#000000;stroke-width:5;stroke-miterlimit:10;}
	.st1{clip-path:url(#SVGID_2_);fill:#FFFFFF;}
	.st2{clip-path:url(#SVGID_2_);fill:none;stroke:#6BCBDA;stroke-width:4;stroke-miterlimit:10;}
	.st3{clip-path:url(#SVGID_2_);fill:none;stroke:#EF4136;stroke-width:3;stroke-miterlimit:10;}
	.st4{clip-path:url(#SVGID_2_);fill:none;stroke:#000000;stroke-miterlimit:10;}
	.st5{clip-path:url(#SVGID_2_);}
	.st6{clip-path:url(#SVGID_2_);fill:#DF1F26;}
</style>
<g>
	<defs>
		<rect id="SVGID_1_" width="690.8" height="690.8"/>
	</defs>
	<clipPath id="SVGID_2_">
		<use xlink:href="#SVGID_1_"  style="overflow:visible;"/>
	</clipPath>
	<path class="st0" d="M471.3,331.1c-68,34.1-82.7,62.9-83.2,83.2c-0.7,30.3,30.1,46.1,26.4,74.6c-3.8,29.5-75.3,75.9-106.1,87.6"/>
	<path class="st1" d="M367.5,334.9c0,82.8-49,312.6-103.1,312.6c-54.1,0-92.9-229.8-92.9-312.6s38.7,12.8,92.9,12.8
		C318.5,347.7,367.5,252.1,367.5,334.9"/>
	<path class="st2" d="M367.5,334.9c0,82.8-49,312.6-103.1,312.6c-54.1,0-92.9-229.8-92.9-312.6s38.7,12.8,92.9,12.8
		C318.5,347.7,367.5,252.1,367.5,334.9z"/>
	<path class="st1" d="M392.3,219.5c0,97.3-57,176.2-127.2,176.2s-127.2-78.9-127.2-176.2s57-176.2,127.2-176.2
		S392.3,122.2,392.3,219.5"/>
	<ellipse class="st2" cx="265.1" cy="219.5" rx="127.2" ry="176.2"/>
	<path class="st2" d="M236.9,301.6c2.1,8.9,5.4,16.4,10.3,21.8c-9.7,18.4-17.3,34.4-16.7,41.4c0.2,2,2,3.5,4,3.4
		c10.3-0.7,19.9-7.9,27.9-18.2c2.9-3.7,4.6-8.1,5-12.8c0.3-4,0-7.6-0.8-10.8c-0.3-1.1-0.4-2.3-0.4-3.4v-1.7
		c9-4.5,15.3-10.9,19.7-18.5"/>
	<line class="st2" x1="247.1" y1="323.8" x2="266.1" y2="321.4"/>
	<path class="st3" d="M281,196c-2.5-7.9-7.8-20.2-13.3-32.9l-12,8.4c1.2,1.5,1.8,4.2,2,8.1c2,38.6,2.9,73,1.5,98.5
		c5.8-3.4,9.6-10.9,12.1-20.8c2.5-12.1,2.9-27,2.3-43.5c0-1.4-0.2-2.8-0.3-4.2l-2.2-20.7l9.3,7.7C280.6,196.7,281.1,196.4,281,196z"
		/>
	
		<ellipse transform="matrix(0.7071 -0.7071 0.7071 0.7071 -68.8426 204.0079)" class="st4" cx="211.8" cy="185.1" rx="16.5" ry="16.5"/>
	<path class="st5" d="M210.4,190.8c0.3-4.2,3.9-7.4,8-7.1c4.2,0.3,7.4,3.9,7.1,8c-0.3,4.2-3.9,7.4-8,7.1
		C213.3,198.6,210.1,195,210.4,190.8"/>
	<path class="st1" d="M222.6,195.1c0,1.1-0.9,1.9-1.9,1.9c-1.1,0-1.9-0.9-1.9-1.9c0-1.1,0.9-1.9,1.9-1.9
		C221.7,193.1,222.6,194,222.6,195.1"/>
	
		<ellipse transform="matrix(0.9239 -0.3827 0.3827 0.9239 -46.1028 138.4346)" class="st4" cx="324.9" cy="185.1" rx="16.5" ry="16.5"/>
	<path class="st5" d="M326.4,190.8c-0.3-4.2-3.9-7.4-8-7.1c-4.2,0.3-7.4,3.9-7.1,8c0.3,4.2,3.9,7.4,8,7.1
		C323.5,198.6,326.6,195,326.4,190.8"/>
	<path class="st1" d="M312.1,188.1c0,1.4,1.2,2.6,2.6,2.6c1.4,0,2.6-1.2,2.6-2.6c0-1.4-1.2-2.6-2.6-2.6
		C313.2,185.5,312.1,186.7,312.1,188.1"/>
	<polygon class="st5" points="175.5,160.9 171.5,169.2 241.3,169.2 	"/>
	<polygon class="st5" points="356.1,167.5 357.9,176.6 290.3,159.2 	"/>
	<polygon class="st6" points="529.7,374 495.5,354.8 460.4,372.2 468,333.7 440.7,305.7 479.6,301.1 497.8,266.4 514.3,302 
		552.9,308.6 524.1,335.2 	"/>
</g>
</svg>
