<?xml version="1.0" encoding="utf-8"?>
<!-- Generator: Adobe Illustrator 22.1.0, SVG Export Plug-In . SVG Version: 6.00 Build 0)  -->
<svg version="1.1" id="Layer_1" xmlns="http://www.w3.org/2000/svg" xmlns:xlink="http://www.w3.org/1999/xlink" x="0px" y="0px"
	 viewBox="0 0 690.8 690.8" style="enable-background:new 0 0 690.8 690.8;" xml:space="preserve">
<style type="text/css">
	.st0{clip-path:url(#SVGID_2_);fill:none;stroke:#000000;stroke-width:5;stroke-miterlimit:10;}
	.st1{clip-path:url(#SVGID_2_);fill:#DF1F26;}
	.st2{clip-path:url(#SVGID_2_);fill:#644DA0;}
	.st3{clip-path:url(#SVGID_2_);fill:#FFFFFF;}
	.st4{clip-path:url(#SVGID_2_);fill:none;stroke:#6BCBDA;stroke-width:4;stroke-miterlimit:10;}
	.st5{clip-path:url(#SVGID_2_);fill:none;stroke:#EF4136;stroke-width:3;stroke-miterlimit:10;}
	.st6{clip-path:url(#SVGID_2_);fill:none;stroke:#000000;stroke-miterlimit:10;}
	.st7{clip-path:url(#SVGID_2_);}
	.st8{clip-path:url(#SVGID_2_);fill:#7E7D7D;}
	.st9{clip-path:url(#SVGID_2_);fill:#231F20;}
	.st10{clip-path:url(#SVGID_2_);fill:#221F20;}
	.st11{clip-path:url(#SVGID_2_);fill:#1D1A1B;}
	.st12{clip-path:url(#SVGID_2_);fill:#252324;}
	.st13{clip-path:url(#SVGID_2_);fill:#221F1F;}
	.st14{clip-path:url(#SVGID_2_);fill:#211F1F;}
	.st15{clip-path:url(#SVGID_2_);fill:#FEFEFE;}
	.st16{clip-path:url(#SVGID_2_);fill:#232121;}
	.st17{clip-path:url(#SVGID_2_);fill:#FBFAFA;}
	.st18{clip-path:url(#SVGID_2_);fill:#222021;}
	.st19{clip-path:url(#SVGID_2_);fill:#363535;}
	.st20{clip-path:url(#SVGID_2_);fill:#282626;}
	.st21{clip-path:url(#SVGID_2_);fill:#343334;}
	.st22{clip-path:url(#SVGID_2_);fill:#252223;}
	.st23{clip-path:url(#SVGID_2_);fill:#2A2929;}
	.st24{clip-path:url(#SVGID_2_);fill:#545353;}
	.st25{clip-path:url(#SVGID_2_);fill:#716F70;}
	.st26{clip-path:url(#SVGID_2_);fill:#767575;}
	.st27{clip-path:url(#SVGID_2_);fill:#242122;}
	.st28{clip-path:url(#SVGID_2_);fill:#656464;}
	.st29{clip-path:url(#SVGID_2_);fill:#8D8B8C;}
	.st30{clip-path:url(#SVGID_2_);fill:#3F3E3F;}
	.st31{clip-path:url(#SVGID_2_);fill:#2F2D2D;}
	.st32{clip-path:url(#SVGID_2_);fill:#515051;}
	.st33{clip-path:url(#SVGID_2_);fill:#2A292A;}
	.st34{clip-path:url(#SVGID_2_);fill:#2F2E2F;}
	.st35{clip-path:url(#SVGID_2_);fill:#3C3A3B;}
	.st36{clip-path:url(#SVGID_2_);fill:#555454;}
	.st37{clip-path:url(#SVGID_2_);fill:#5C5B5C;}
	.st38{clip-path:url(#SVGID_2_);fill:#585858;}
	.st39{clip-path:url(#SVGID_2_);fill:#2E2C2D;}
	.st40{clip-path:url(#SVGID_2_);fill:#898888;}
	.st41{clip-path:url(#SVGID_2_);fill:#8C8B8B;}
	.st42{clip-path:url(#SVGID_2_);fill:#464545;}
	.st43{clip-path:url(#SVGID_2_);fill:#8F8D8E;}
	.st44{clip-path:url(#SVGID_2_);fill:#3C3B3B;}
	.st45{clip-path:url(#SVGID_2_);fill:#797878;}
	.st46{clip-path:url(#SVGID_2_);fill:#434243;}
	.st47{clip-path:url(#SVGID_2_);fill:#454444;}
	.st48{clip-path:url(#SVGID_2_);fill:#6E6C6D;}
	.st49{clip-path:url(#SVGID_2_);fill:#949494;}
	.st50{clip-path:url(#SVGID_2_);fill:#585758;}
	.st51{clip-path:url(#SVGID_2_);fill:#2B2929;}
	.st52{clip-path:url(#SVGID_2_);fill:#848384;}
	.st53{clip-path:url(#SVGID_2_);fill:#2B292A;}
	.st54{clip-path:url(#SVGID_2_);fill:#343333;}
	.st55{clip-path:url(#SVGID_2_);fill:#636262;}
	.st56{clip-path:url(#SVGID_2_);fill:#414040;}
	.st57{clip-path:url(#SVGID_2_);fill:#919090;}
	.st58{clip-path:url(#SVGID_2_);fill:#2E2D2E;}
	.st59{clip-path:url(#SVGID_2_);fill:#2E2D2D;}
	.st60{clip-path:url(#SVGID_2_);fill:#BBB7B8;}
	.st61{clip-path:url(#SVGID_2_);fill:#615F60;}
	.st62{clip-path:url(#SVGID_2_);fill:#515151;}
	.st63{clip-path:url(#SVGID_2_);fill:#363435;}
	.st64{clip-path:url(#SVGID_2_);fill:#848182;}
	.st65{clip-path:url(#SVGID_2_);fill:#302E2F;}
	.st66{clip-path:url(#SVGID_2_);fill:#918F90;}
	.st67{clip-path:url(#SVGID_2_);fill:#312F2F;}
	.st68{clip-path:url(#SVGID_2_);fill:#322F30;}
	.st69{clip-path:url(#SVGID_2_);fill:#858484;}
	.st70{clip-path:url(#SVGID_2_);fill:#2D2B2C;}
	.st71{clip-path:url(#SVGID_2_);fill:#B1AFAF;}
	.st72{clip-path:url(#SVGID_2_);fill:#959598;}
	.st73{clip-path:url(#SVGID_2_);fill:#323031;}
	.st74{clip-path:url(#SVGID_2_);fill:#272425;}
	.st75{clip-path:url(#SVGID_2_);fill:#807E7E;}
	.st76{clip-path:url(#SVGID_2_);fill:#706D6E;}
	.st77{clip-path:url(#SVGID_2_);fill:#393738;}
	.st78{clip-path:url(#SVGID_2_);fill:#8D8A8B;}
	.st79{clip-path:url(#SVGID_2_);fill:#888686;}
	.st80{clip-path:url(#SVGID_2_);fill:#898788;}
	.st81{clip-path:url(#SVGID_2_);fill:#5E5D5D;}
	.st82{clip-path:url(#SVGID_2_);fill:#777676;}
	.st83{clip-path:url(#SVGID_2_);fill:#8D8C8C;}
	.st84{clip-path:url(#SVGID_2_);fill:#7A7979;}
	.st85{clip-path:url(#SVGID_2_);fill:#717070;}
	.st86{clip-path:url(#SVGID_2_);fill:#727171;}
	.st87{clip-path:url(#SVGID_2_);fill:#8C8A8B;}
	.st88{clip-path:url(#SVGID_2_);fill:#9B9A9D;}
	.st89{clip-path:url(#SVGID_2_);fill:#616060;}
	.st90{clip-path:url(#SVGID_2_);fill:#898787;}
	.st91{clip-path:url(#SVGID_2_);fill:#292627;}
	.st92{clip-path:url(#SVGID_2_);fill:#7A797A;}
	.st93{clip-path:url(#SVGID_2_);fill:#7E7E7E;}
	.st94{clip-path:url(#SVGID_2_);fill:#7B7A7A;}
	.st95{clip-path:url(#SVGID_2_);fill:#434142;}
	.st96{clip-path:url(#SVGID_2_);fill:#8C8C8C;}
	.st97{clip-path:url(#SVGID_2_);fill:#979394;}
	.st98{clip-path:url(#SVGID_2_);fill:#7C7A7C;}
	.st99{clip-path:url(#SVGID_2_);fill:#828081;}
	.st100{clip-path:url(#SVGID_2_);fill:#7D7B7B;}
	.st101{clip-path:url(#SVGID_2_);fill:#838182;}
	.st102{clip-path:url(#SVGID_2_);fill:#929091;}
	.st103{clip-path:url(#SVGID_2_);fill:#313031;}
	.st104{clip-path:url(#SVGID_2_);fill:#666465;}
	.st105{clip-path:url(#SVGID_2_);fill:#747273;}
	.st106{clip-path:url(#SVGID_2_);fill:#6F6E6E;}
	.st107{clip-path:url(#SVGID_2_);fill:#8C8B8C;}
	.st108{clip-path:url(#SVGID_2_);fill:#676566;}
	.st109{clip-path:url(#SVGID_2_);fill:#565656;}
	.st110{clip-path:url(#SVGID_2_);fill:#8B8889;}
	.st111{clip-path:url(#SVGID_2_);fill:#FFFEFE;}
	.st112{clip-path:url(#SVGID_2_);fill:#FCFCFC;}
	.st113{clip-path:url(#SVGID_2_);fill:#4D4C4C;}
	.st114{clip-path:url(#SVGID_2_);fill:#FDFDFD;}
	.st115{clip-path:url(#SVGID_2_);fill:#5C5B5B;}
	.st116{clip-path:url(#SVGID_2_);fill:#676666;}
	.st117{clip-path:url(#SVGID_2_);fill:#757273;}
	.st118{clip-path:url(#SVGID_2_);fill:#818081;}
	.st119{clip-path:url(#SVGID_2_);fill:#B8B6B6;}
	.st120{clip-path:url(#SVGID_2_);fill:#8F8E8F;}
	.st121{clip-path:url(#SVGID_2_);fill:#8A8889;}
	.st122{clip-path:url(#SVGID_2_);fill:#626161;}
	.st123{clip-path:url(#SVGID_2_);fill:#FBFBFB;}
	.st124{clip-path:url(#SVGID_2_);fill:#424141;}
	.st125{clip-path:url(#SVGID_2_);fill:#696868;}
	.st126{clip-path:url(#SVGID_2_);fill:#F7F6F5;}
	.st127{clip-path:url(#SVGID_2_);fill:#C4C2C2;}
	.st128{clip-path:url(#SVGID_2_);fill:#E8E7E6;}
	.st129{clip-path:url(#SVGID_2_);fill:#6A6768;}
	.st130{clip-path:url(#SVGID_2_);fill:#211E1F;}
	.st131{clip-path:url(#SVGID_2_);fill:#F2F1F1;}
	.st132{clip-path:url(#SVGID_2_);fill:#ABA8A9;}
	.st133{clip-path:url(#SVGID_2_);fill:#939292;}
	.st134{clip-path:url(#SVGID_2_);fill:#838282;}
	.st135{clip-path:url(#SVGID_2_);fill:#959494;}
	.st136{clip-path:url(#SVGID_2_);fill:#8B8B8B;}
	.st137{clip-path:url(#SVGID_2_);fill:#9D9C9C;}
	.st138{clip-path:url(#SVGID_2_);fill:#9A9A9A;}
	.st139{clip-path:url(#SVGID_2_);fill:#979696;}
	.st140{clip-path:url(#SVGID_2_);fill:#3E3D3D;}
	.st141{clip-path:url(#SVGID_2_);fill:#4B4A4B;}
	.st142{clip-path:url(#SVGID_2_);fill:#868485;}
	.st143{clip-path:url(#SVGID_2_);fill:#5A5A5A;}
	.st144{clip-path:url(#SVGID_2_);fill:#848383;}
	.st145{clip-path:url(#SVGID_2_);fill:#797978;}
</style>
<g>
	<defs>
		<rect id="SVGID_1_" width="690.8" height="690.8"/>
	</defs>
	<clipPath id="SVGID_2_">
		<use xlink:href="#SVGID_1_"  style="overflow:visible;"/>
	</clipPath>
	<path class="st0" d="M588.7,272.6c-29.2,14.6-35.5,27-35.7,35.7c-0.3,13,12.9,19.8,11.4,32.1c-1.6,12.7-32.3,32.6-45.6,37.7"/>
	<path class="st1" d="M598.8,259.3c0,6.4-5.2,11.6-11.6,11.6c-6.4,0-11.6-5.2-11.6-11.6c0-6.4,5.2-11.6,11.6-11.6
		C593.6,247.6,598.8,252.9,598.8,259.3"/>
	<path class="st1" d="M615.8,274.3c0,6.4-5.2,11.6-11.6,11.6c-6.4,0-11.6-5.2-11.6-11.6s5.2-11.6,11.6-11.6
		C610.6,262.6,615.8,267.9,615.8,274.3"/>
	<path class="st1" d="M581.4,274.3c0,6.4-5.2,11.6-11.6,11.6c-6.4,0-11.6-5.2-11.6-11.6s5.2-11.6,11.6-11.6
		C576.2,262.6,581.4,267.9,581.4,274.3"/>
	<path class="st1" d="M598.8,289.1c0,6.4-5.2,11.6-11.6,11.6c-6.4,0-11.6-5.2-11.6-11.6c0-6.4,5.2-11.6,11.6-11.6
		C593.6,277.4,598.8,282.7,598.8,289.1"/>
	<path class="st2" d="M593.6,272.1c-1.4,1.9-4.1,2.3-6,0.8c-1.9-1.4-2.3-4.1-0.8-6c1.4-1.9,4.1-2.3,6-0.8
		C594.7,267.5,595.1,270.2,593.6,272.1"/>
	<path class="st2" d="M596.7,277.8c-1.4,1.9-4.1,2.3-6,0.8c-1.9-1.4-2.3-4.1-0.8-6c1.4-1.9,4.1-2.3,6-0.8
		C597.8,273.2,598.2,275.9,596.7,277.8"/>
	<path class="st2" d="M592.9,282.9c-1.4,1.9-4.1,2.3-6,0.8c-1.9-1.4-2.3-4.1-0.8-6c1.4-1.9,4.1-2.3,6-0.8
		C593.9,278.3,594.3,281,592.9,282.9"/>
	<path class="st2" d="M586.4,281.6c-1.4,1.9-4.1,2.3-6,0.8c-1.9-1.4-2.3-4.1-0.8-6c1.4-1.9,4.1-2.3,6-0.8
		C587.5,277,587.8,279.7,586.4,281.6"/>
	<path class="st2" d="M585,276.3c-1.4,1.9-4.1,2.3-6,0.8c-1.9-1.4-2.3-4.1-0.8-6c1.4-1.9,4.1-2.3,6-0.8
		C586,271.7,586.4,274.4,585,276.3"/>
	<path class="st2" d="M587.6,272.9c-1.4,1.9-4.1,2.3-6,0.8c-1.9-1.4-2.3-4.1-0.8-6c1.4-1.9,4.1-2.3,6-0.8
		C588.7,268.3,589,271,587.6,272.9"/>
	<path class="st3" d="M329,297.8c277.1-3.2,286.6,152.3-76.8,164.1c-91,3-129.1-97-70.2-164.1c41-46.6,29,9.6,69.6,9.6
		C292.2,307.4,266.9,298.6,329,297.8"/>
	<path class="st4" d="M329,297.8c277.1-3.2,286.6,152.3-76.8,164.1c-91,3-129.1-97-70.2-164.1c41-46.6,29,9.6,69.6,9.6
		C292.2,307.4,266.9,298.6,329,297.8z"/>
	<path class="st3" d="M347.6,211.3c0,73-42.7,132.1-95.4,132.1c-52.7,0-95.4-59.2-95.4-132.1s42.7-132.1,95.4-132.1
		C304.9,79.2,347.6,138.3,347.6,211.3"/>
	<ellipse class="st4" cx="252.2" cy="211.3" rx="95.4" ry="132.1"/>
	<path class="st4" d="M231.1,272.9c1.6,6.7,4.1,12.3,7.8,16.4c-7.3,13.8-13,25.8-12.5,31c0.1,1.5,1.5,2.7,3,2.5
		c7.7-0.5,14.9-5.9,20.9-13.6c2.2-2.8,3.5-6.1,3.7-9.6c0.2-3,0-5.7-0.6-8.1c-0.2-0.8-0.3-1.7-0.3-2.6v-1.3
		c6.8-3.4,11.5-8.2,14.7-13.9"/>
	<line class="st4" x1="238.7" y1="289.5" x2="253" y2="287.7"/>
	<path class="st5" d="M264.1,193.7c-1.9-5.9-5.8-15.1-10-24.7l-9,6.3c0.9,1.1,1.4,3.1,1.5,6c1.5,28.9,2.2,54.8,1.1,73.8
		c4.3-2.6,7.2-8.2,9.1-15.6c1.9-9.1,2.1-20.3,1.7-32.6c0-1.1-0.1-2.1-0.2-3.2l-1.7-15.5l7,5.8C263.8,194.2,264.2,194,264.1,193.7z"
		/>
	<path class="st6" d="M224.6,185.5c0,6.8-5.5,12.3-12.3,12.3c-6.8,0-12.3-5.5-12.3-12.3c0-6.8,5.5-12.3,12.3-12.3
		C219.1,173.2,224.6,178.7,224.6,185.5z"/>
	<path class="st7" d="M211.2,189.8c0.2-3.1,2.9-5.5,6-5.3c3.1,0.2,5.5,2.9,5.3,6c-0.2,3.1-2.9,5.5-6,5.3
		C213.4,195.6,211,192.9,211.2,189.8"/>
	<path class="st3" d="M220.3,193c0,0.8-0.7,1.5-1.5,1.5s-1.5-0.7-1.5-1.5c0-0.8,0.7-1.5,1.5-1.5S220.3,192.2,220.3,193"/>
	<path class="st6" d="M284.7,185.5c0,6.8,5.5,12.3,12.3,12.3s12.3-5.5,12.3-12.3c0-6.8-5.5-12.3-12.3-12.3S284.7,178.7,284.7,185.5z
		"/>
	<path class="st7" d="M298.2,189.8c-0.2-3.1-2.9-5.5-6-5.3c-3.1,0.2-5.5,2.9-5.3,6c0.2,3.1,2.9,5.5,6,5.3
		C296,195.6,298.3,192.9,298.2,189.8"/>
	<path class="st3" d="M287.4,187.8c0,1.1,0.9,1.9,1.9,1.9c1.1,0,1.9-0.9,1.9-1.9c0-1.1-0.9-1.9-1.9-1.9
		C288.3,185.8,287.4,186.7,287.4,187.8"/>
	<polygon class="st7" points="185,167.4 182.1,173.6 234.4,173.6 	"/>
	<polygon class="st7" points="320.4,172.3 321.8,179.1 271.1,166.1 	"/>
	<polygon class="st3" points="185.5,293.9 184.3,308.3 196.1,336.1 278.2,367.9 313,329.5 326.6,297.8 323.9,287.7 242.3,322.8 
		225.6,326.5 213,321.5 	"/>
	<path class="st1" d="M229.7,554.8L229.7,554.8c-1.1,0-2-0.9-2-2V405.3c0-1.1,0.9-2,2-2c1.1,0,2,0.9,2,2v147.5
		C231.7,553.9,230.8,554.8,229.7,554.8"/>
	<path class="st1" d="M433.7,554.8L433.7,554.8c-1.1,0-2-0.9-2-2V405.3c0-1.1,0.9-2,2-2c1.1,0,2,0.9,2,2v147.5
		C435.7,553.9,434.8,554.8,433.7,554.8"/>
	<path class="st3" d="M345.3,267.3h-0.5c-1.9,0-3.4-1.5-3.4-3.4v-50.7c0-1.9,1.5-3.4,3.4-3.4h0.5c1.9,0,3.4,1.5,3.4,3.4v50.7
		C348.7,265.8,347.1,267.3,345.3,267.3"/>
	<polygon class="st3" points="186.6,178.4 149,214.4 169,118.5 221.4,81.3 	"/>
	<rect x="327.2" y="140.8" class="st3" width="12.3" height="5.1"/>
	<path class="st8" d="M119,235.3c-0.9,0.6-1.9,1.2-3.1,1v-0.2c0.2,0,0.5,0,0.6-0.1c0.3-0.6,0.9-0.7,1.5-0.8c0.4-0.1,0.7-0.3,1-0.5
		C119.2,234.9,119.2,235.1,119,235.3"/>
	<path class="st3" d="M219.5,91.6c-0.3-0.4-0.9,0-1.2-0.4c-0.7-0.4-1.5-0.6-2.1-1.2c-0.2-0.6-0.6-0.3-1-0.3c-3-1.5-6.1-2.6-9.4-3.5
		c-1.4-0.4-2.9-0.6-4.3-1c-2.5-0.7-5-0.6-7.5-0.7c-0.4,0-1.2,0-0.6-0.8c2-1.2,4.3-1.9,6.5-2.7c1.5-0.5,3-1,4.5-1.3
		c0.5,0,0.9-0.2,1.2-0.6c1.9-0.5,3.8-1,5.7-1.5c2.1-0.5,4.3-1,6.4-1.4c1.8-0.4,3.6-0.8,5.5-0.9c2.1-0.4,4.1,0.4,6.1,0.8
		c2.1,0.4,4.2,0.9,6.2,1.6c2.1,0.6,4.2,1.3,6.3,2.1c3.2,1.3,6.5,2.4,9.6,4.1c3,1.6,6.2,3,9.2,4.8c2.7,1.7,5.6,3,8.2,4.8
		c2.9,2,6.1,3.7,8.9,5.8c1.7,1.3,3.7,2.3,5.5,3.6c3.1,2.2,6.3,4.3,9.4,6.4c3.7,2.5,7.3,4.9,11.2,7.1c3.8,2.2,7.6,4.4,11.5,6.3
		c2.7,1.3,5.4,2.7,8.2,3.9c0.8,0.3,1.5,0.6,2.3,0.9c4.5,2.2,9.3,3.5,14.1,5c2,0.6,3.9,1.2,5.9,1.6c2.5,0.4,5,1,7.6,0.9
		c3.9-0.1,7.8,0.3,11.7-0.6c0.1,0,0.1,0,0.2,0c0.4,0,1.1-0.1,1.2,0.3c0.1,0.5-0.6,0.5-1,0.6c-3.5,1-7,1.8-10.6,2.5
		c-0.5,0.1-1.1,0.1-1.6,0.1c-1.6,0.2-3.2,0.1-4.9,0.5c-1.5,0.3-3.1,0.1-4.7,0.1c-1.1,0.2-2.2-0.4-3.2-0.4c-3.6-0.2-7.2-0.7-10.7-1.3
		c-3.9-0.7-7.8-1.5-11.6-2.6c-2.7-0.8-5.3-1.8-7.9-2.7c-2.3-0.8-4.5-1.6-6.7-2.7c-2.9-1.5-6-2.6-8.6-4.4c-3.1-2-6.4-3.7-9.3-6.1
		c-1.6-1.3-3.4-2.3-4.9-3.6c-3.7-2.9-7.4-5.8-11.1-8.7c-0.8-0.6-1.6-1.1-2.4-1.8c-1.5-1.5-3.3-2.6-5-3.9
		c-7.1-5.5-15.3-9.1-23.4-13.1c8,4,16.2,7.6,23.3,13.1c1.7,1.3,3.6,2.4,5.1,3.9c1.7,1.3,3.5,2.5,5.1,3.8c2.9,2.5,6,4.8,9.1,7.1
		c3.6,2.7,7.3,5.3,11.2,7.7c3.2,2,6.6,3.7,10,5.5c3.1,1.6,6.6,2.7,9.9,3.9c2.3,0.8,4.6,1.6,6.9,2.3c3.2,0.9,6.5,1.5,9.8,2.2
		c1.9,0.4,3.8,0.4,5.7,1c1.5,0.5,3.1,0.3,4.7,0.5c3.2,0.4,6.4,0.1,9.6,0.2c0.5,0,1.3-0.2,1.3,0.4c0,0.5-0.8,0.3-1.2,0.4
		c-3,0.8-6.1,1.1-9.1,1.6c-2.3,0.4-4.7,0.1-7-0.1c-1.9-0.2-3.9-0.2-5.8-0.6c-2.3-0.4-4.7-0.8-7-1.4c-2.5-0.7-5-1.6-7.4-2.4
		c-2.1-0.8-4.3-1.5-6.3-2.5c-3.1-1.6-6.4-2.8-9.5-4.6c-3.3-1.9-6.8-3.6-9.9-5.7c-1.7-1.2-3.6-2.3-5.5-3.4c-1.9-1.2-3.7-2.6-5.6-3.9
		c-3.1-2-6.1-4.3-9.1-6.5c-3.1-2.3-6.5-4.4-9.5-6.9c-1.8-1.1-3.6-2.1-5.3-3.4c-1.6-1.3-3.4-2.2-5.2-3.3c-3.6-2.2-7.3-4.2-11-6.1
		c-2.5-1.2-5-2.3-7.5-3.3c-1.5-0.6-3-1.2-4.5-1.6c-0.8-0.2-1.5-0.8-2.3-0.9c1.8,0.8,3.9,1.3,5.9,2.1c2.7,1,5.4,2.1,7.9,3.4
		c2.6,1.3,5.2,2.5,7.7,3.9c1.3,0.7,2.5,1.6,3.8,2.3c1.5,1,3.1,1.7,4.4,2.8c1.8,1.4,3.7,2.5,5.6,3.7c2.7,2.1,5.5,3.9,8.2,5.9
		c3.1,2.3,6.3,4.5,9.4,6.9c1.1,0.8,2.3,1.5,3.4,2.3c2.6,2,5.4,3.6,8.1,5.4c2.2,1.5,4.6,2.7,6.8,4.1c3.2,2.1,6.7,3.6,10.1,5.3
		c4.1,2.1,8.3,3.6,12.7,5c1,0.3,2,0.8,3.1,1.1c0.2,0.1,0.6,0.1,0.5,0.4c-0.1,0.3-0.4,0.3-0.6,0.3c-1.5-0.1-3-0.4-4.4-1.1
		c-0.9-0.4-1.9-0.5-2.9-0.8c-3.9-0.9-7.8-2-11.5-3.3c-4.1-1.5-8.3-2.8-12.3-4.5c-4.1-1.7-8.2-3.4-12.2-5.3
		c-3.5-1.7-7.1-3.3-10.6-5.1c-3-1.6-6-3-8.9-4.8c-3.5-2.2-7.2-4.2-10.6-6.5c-1.8-1.2-3.7-2.1-5.5-3.4c-3-2.2-6.4-3.8-9.3-6.1
		c-2.4-1.5-5-2.8-7.3-4.4c-1.2-0.8-2.5-1.4-3.9-2.1C219.7,91.9,219.4,91.9,219.5,91.6"/>
	<path class="st9" d="M353.5,137.7c1.8,0,3.6-0.5,5.4-0.9c2.6-0.6,5.1-1.3,7.7-2c-1.3-0.2-2.5,0.2-3.7,0.3
		c-4.8,0.3-9.6,0.5-14.4-0.3c-2.3-0.4-4.6-0.6-6.7-1.4c-1.6-0.5-3.3-1-4.9-1.5c-3.2-1.1-6.4-2.1-9.6-3.4c-0.6-0.2-1-0.7-1.6-0.8
		c0-0.4,0.4-0.3,0.6-0.4c1.1,0,2,0.7,3,1.1c4.3,1.5,8.6,3.1,13.1,4.1c0.7,0.2,1.4,0.6,2.1,0.7c3.3,0.7,6.7,1.3,10.1,1.2
		c1.7,0,3.3,0,4.5,0.1c-1.7-0.1-4-0.1-6.2-0.8c-3.7-1.1-7.5-1.8-11.2-2.8c-1.7-0.5-3.4-0.9-5-1.5c-4.2-1.4-8.3-2.8-12.2-4.9
		c-3.4-1.8-6.8-3.7-10-5.9c-1.9-1.4-4-2.5-5.9-3.9c-2.5-1.8-5-3.5-7.5-5.3c-0.8-0.6-1.6-1.3-2.4-1.9c-0.2-0.2-0.5-0.4-0.5-0.7
		c0-0.2,0.1-0.3,0.3-0.4c1.2,0.1,1.9,0.9,2.7,1.6c1.2,1,2.6,1.9,3.9,2.8c3.4,2.4,6.8,4.7,10.2,6.9c4,2.5,8.1,4.8,12.3,7
		c2.3,1.2,4.9,1.9,7.4,2.8c2.3,0.8,4.7,1.5,7.1,2.1c4,1,7.9,2.1,11.9,2.7c1.2,0.2,2.4,0.7,3.7,0.8c1.7,0.2,3.4-0.1,5.1,0
		c0.4,0,0.9,0,1.3,0.1c0.3,0.5,0.8,0.5,1.3,0.5c1.4-0.1,2.9,0.1,4.3-0.3c1-0.3,2.1-0.7,3.1-1c0.1-0.1,0.3-0.2,0.4-0.1
		c0.7,0.5,1.1,0.1,1.3-0.5c2.7-1.5,5.3-3.1,8-4.9c-0.5,1.1-1.7,2.2-4.3,4c1.6-0.2,8.4-5.4,10.1-7.7c0.2,0.8-0.5,1.1-0.8,1.4
		c-2.5,2.7-5,5.4-8.5,7.2c0.7,0.4,1.1-0.1,1.5-0.2c0.5-0.1,1-0.3,1.5-0.4c2.8-0.9,5.7-1.7,8.5-2.8c1.9-0.7,3.8-1.4,5.7-2.1
		c2.1-0.8,4.3-1.3,6.3-2.3c2.1-1,4.4-1.8,6.6-2.8c1.2-0.5,2.5-1,3.7-1.5c0.2-0.1,0.4-0.1,0.4,0.2c-2.5,1.3-5.2,2.2-7.7,3.4
		c-3.5,1.7-7.2,2.7-10.8,4.2c-4.9,2-9.9,3.4-14.9,5.1c-0.7,0.2-1.4,0.3-2,0.8c-0.5-0.4-0.8-0.3-1.1,0.3c-1.5,0.7-3.1,1-4.6,1.5
		c-1.9,0.6-3.8,1.1-5.6,1.6c-2.9,0.9-5.8,1.8-8.7,2.7c-0.2,0.1-0.5,0.1-0.7,0.1c-0.6,0.5-1.4,0.7-2.2,0.9c-0.4,0.1-0.9,0.1-1.2,0.4
		c-0.2,0.1-0.5,0.1-0.7,0.1c0.3,0,0.6,0,0.9-0.2c1.4-0.4,2.9-0.8,4.3-1c6.1-1.5,12.2-3.2,18.5-3.4c1-0.2,2-0.3,3.1-0.3
		c3.8,0,7.6,0,11.5,0c0.3,0,0.8-0.3,0.9,0.2c-6-0.1-12,0.5-17.9,1c-3.1,0.3-6.1,1-9.2,1.5c-2.8,0.5-5.6,1.2-8.4,1.9
		c-0.4,0.1-0.5,0.5-0.8,0.5c4.2-0.6,8.4-0.7,12.6-0.6c4.2,0,8.3,0.3,12.5,1.3c-1.4,0.3-2.6-0.2-3.8-0.3c-6.9-0.7-13.7-0.5-20.6,0.3
		c-1.1,0.1-2.1,0-3.2,0.3c-0.3,0.1-1-0.3-1,0.5c0,0.8,0.6,0.6,1,0.6c2.1,0,4.3,0,6.4,0.3c0.2,0,0.5,0.1,0.7,0.1
		c0.4,0.4,0.2,0.6-0.2,0.4c-0.7-0.3-1.5,0-2.2-0.2c-1.5,0-3.1,0-4.6,0c-0.7,0-0.8,0.2-0.6,0.8c0.3,1.2,1.9,9.7,2.1,10.9
		c-0.1,0.3-2.7-4.8-2-3.9c0.6,0.8,1.1,1.6,1.7,2.4c0.4,1.2,0.2,2.4,0.4,3.6c0.4,3.8,0.7,7.6,1.1,11.3c0.3,2.4,0.6,4.8,1,7.3
		c0.4,2.6,0.9,5.1,1.6,7.6c0.7,2.7,1.7,5.4,2.9,7.9c1.6,3.3,3.5,6.3,5.9,9.1c1.1,1.3,2.3,2.4,3.5,3.6c0.1,0.1,0.1,0.2,0,0.3
		c-1.4-0.8-2.6-1.9-3.7-3.1c-1.3-1.3-2.6-2.7-3.7-4.2c-1.5-2.1-3.1-4.1-3.9-6.5c-0.1-0.2-0.1-0.6-0.4-0.7c0,1.9,0,3.8,0,5.7
		c0.2,5.2,0.2,10.4,0.6,15.7c0.2,2.6,0.6,5.1,1.1,7.6c0.6,2.7,1.4,5.3,2.6,7.8c1.3,2.7,3,5.2,5.6,7c0.3,0.3,0.3,0.3,0,0.4
		c-3.3-2.3-5.6-5.5-7.6-8.9c-1.7-2.9-2.9-5.9-4.2-9c-1.5,9.5-1.6,19,2.6,28c0.1,0.3,0.4,0.6-0.2,0.8c-0.3-1-1-1.9-1.4-2.9
		c-1-2.2-1.7-4.4-2.4-6.7c-0.3-1-0.4-2.1-1.1-3c-0.3,2.8-0.6,5.6-1,8.4c-0.5,4.2-0.8,8.3-1.5,12.5c-0.6,3.8-1.5,7.5-2.7,11.1
		c-0.7,2-1.7,3.8-2.9,5.5c-0.4,0.6-2.9,3.1-3.9,3.6c-1.5,0.7-3.1,1.2-4.6,2.2c0.3-3.2,0.5-6.3,0.8-9.3c0.2-2.1,0.2-4.2,0.4-6.3
		c0.4-5,0.5-10,0.7-15c0.2-5.7,0.4-11.3,0.6-17c0-0.4-0.2-1.1,0.7-0.8c0.5,0.5,0.4,1.2,0.2,1.7c-0.4,2.2,0,4.4,0.1,6.6
		c0.1,1.3,0.1,2.6,0.2,4.1c2.4-3.7,3.4-7.4,1.6-11.5c-0.2-0.5-0.5-1-0.7-1.5c-0.1-0.4-0.1-0.8,0-1.2c0-0.2,0.1-0.4,0.4-0.3
		c0.2,0,0.1,0.3,0.2,0.4c1.9,2.7,2.4,5.6,1.9,8.8c-0.4,2.6-1.7,4.8-3.4,6.7c-0.2,0.2-0.4,0.3-0.4,0.7c0.1,2.8,0.2,5.7,0.3,8.5
		c2.4-1.7,4.1-4.3,4.9-7.6c0.7-3.1,0.5-6.2-0.4-9.5c0.6,0.9,1.3,3.6,1.3,4.9c0.1,2.5,0.2,5-0.6,7.4c-0.8,2.2-2,4.2-4.5,5.1
		c-0.6,0.2-0.8,0.5-0.8,1.1c0.1,4.7-0.2,9.3-0.3,14c-0.1,1.9-0.3,3.8-0.5,5.8c1.3-0.4,2.3-1.2,3-2.1c1.1-1.4,2.2-2.7,2.8-4.3
		c1-2.5,1.8-5.1,2.3-7.7c0.5-2.9,0.7-5.8,1.1-8.8c0.2-2,0.4-4,0.7-6c0.2-1.2-0.2-2.4-0.4-3.6c-0.1-0.9-0.3-1.9-0.5-2.8
		c0-0.5-0.4-1,0.1-1.5c0.8,1.1,0.9,2.5,1,3.8c0,0.1,0,0.2,0,0.4c0,0-0.1,0.2,0.1,0.1c0,0,0-0.1,0-0.2c0-1.1-0.1-2.2-0.2-3.3
		c0-0.6,0.1-1.3-0.3-1.9c-0.1-0.3-0.1-0.5-0.1-0.8c0.1-0.2,0.1-0.4,0.4-0.5c0.7,0.7,0.7,1.7,0.9,2.3c0-1.1,0.5-2.4,0.8-3.7
		c0.2-0.8,0.4-1.6,0.7-2.4c0.1-0.3,0.1-0.6,0-0.9c-1.2-4-2.2-8.1-4.1-11.8c-1.4-2.8-3.4-5.4-5.9-7.5c-1.3-1.1-2.6-2.1-3.9-3.2
		c-0.3,0.4-0.1,0.9-0.4,1.2c-0.1,0.1-0.2,0.1-0.3,0c-0.9-7.2-1.4-14.4-1.7-21.6c-0.2-4.5-0.6-8.9-0.9-13.3c0-0.3-0.2-0.6,0.1-0.8
		c0.1-0.1,0.3-0.1,0.4-0.1c0.6,0.4,0.4,0.9,0.5,1.4c0.1,1,0.4,1.6,1.5,1.9c1.6,0.4,2.9,1.3,4.1,2.5c1.5,1.5,3.1,3,4.1,4.8
		c0.1,0.2,0.3,0.4,0.3,0.6c0.1,0.3,0.4,0.7,0,0.9c-0.4,0.2-0.6-0.2-0.8-0.5c-1.3-2.1-3.1-3.8-4.9-5.5c-0.9-0.9-2.1-1.5-3.3-2
		c-0.8-0.3-0.9-0.2-0.8,0.6c0.1,1.4,0.4,2.8,0.4,4.2c0.1,1.3,0.2,2.5,0.1,3.8c0,0.9,0.3,1.6,1,2.2c1.7,1.6,3.6,2.9,5.2,4.6
		c0.4,0.4,0.7,0.7,1,1.2c0.1,0.2,0.3,0.5,0,0.7c-0.3,0.3-0.6,0-0.8-0.2c-0.4-0.4-0.8-0.9-1.2-1.3c-1.5-1.5-3.2-2.8-5-4.4
		c0,2.1,0.2,4,0.4,5.8c0,0.3-0.1,0.7,0,1c0.1,1.2,0.1,2.4,0.1,3.6c0,1,0.3,1.8,1.3,2.2c2.6,1.2,4.8,3.1,6.8,5.1
		c0.1,0.1,0.1,0.1,0.2,0.2c0.2,0.3,0.6,0.6,0.3,0.9c-0.4,0.3-0.7-0.1-0.9-0.3c-1.8-1.7-3.8-3.1-5.9-4.5c-0.2-0.1-0.4-0.3-0.6-0.4
		c-0.8-0.4-0.9-0.3-0.8,0.5c0.1,0.9,0.1,1.8,0.2,2.8c0.1,0.6,0.3,1,0.8,1.3c1.7,1.1,3.2,2.4,4.7,3.7c2.6,2.3,4.5,5,5.9,8.1
		c1.2,2.7,2.2,5.6,3,8.4c0.1,0.4,0.3,0.8,0.2,1.1c0.2-2.3,0.4-4.6,0.7-6.9c0.3-2.2,0.4-4.4,0.4-6.6c0-0.2,0-0.5,0.1-0.7
		c0.5-2.4,0.6-4.8-0.7-7.1c-0.1-0.3-0.2-0.6-0.2-0.9c0-0.2,0.1-0.4,0.3-0.5c0.5,0.4,0.5,0.4,0.8,0.9c0-0.7,0-1.5,0-2.2
		c0.1-1.1-0.2-2.2-0.8-3.1c-0.1-0.2-0.3-0.4-0.3-0.6c-0.1-0.3-0.1-0.6,0.2-0.7c0.3-0.1,0.4,0.1,0.6,0.3c0.2,0.3,0.4,0.6,0.4,0.9
		c-0.2-1.1-0.1-2.4-0.1-3.7c0-0.9-0.1-1.7-0.7-2.4c-0.3-0.3-0.6-0.8,0.3-0.8c0.6,0,0.4-0.4,0.4-0.7c-0.2-1.6-0.4-3.2-0.5-4.7
		c0-1.6-0.7-2.8-1.8-4.1c-1.3-1.6-2.8-3-4.2-4.5c-2.1-2.2-4.5-3.9-7.2-5.4c-0.3-0.2-0.5-0.3-0.5-0.7c0-0.2,0.1-0.3,0.2-0.4
		c0.2-0.1,0.4-0.1,0.6,0c2.8,1.7,5.8,3.4,8,5.8c1,1.1,2.2,2.1,3.2,3.2c0.4,0.5,0.7,0.9,1,1.4c-0.3-0.7-0.9-1.3-1.4-2
		c-1.7-2.1-3.3-4.3-5.2-6.2c-2-2-4-4-6.6-5.3c-0.3-0.2-0.7-0.3-0.9-0.7c-0.1-0.4,0.1-0.6,0.5-0.7c1.7,0.5,3,1.5,4.2,2.5
		c2.6,2.1,5,4.5,6.9,7.3c0.7,1.1,1.6,2.1,2.3,3.2c0.1-1.3-0.1-2.6-0.4-4c-0.3-1.4-0.4-2.8-0.4-4.2c-0.1-2-1.1-3.7-1.9-5.5
		c-0.1-0.3-0.3-0.6-0.3-0.9c0-0.1,0.1-0.2,0.1-0.3c1,0.2,1,1.2,1.5,1.8c-0.4-1.7-0.5-3.4-0.7-5.1c-0.1-1.3-0.6-2.5-1.6-3.4
		c-0.4-0.4-0.8-0.8-1.1-1.3c-0.1-0.2-0.2-0.5,0-0.6c0.3-0.2,0.5-0.1,0.7,0.1c0.5,0.5,1,1.1,1.5,1.6c-0.2-0.4-0.2-0.8-0.1-1.3
		c0.2-0.6,0.9-0.7,1.3-1.1c0.7-0.8,0.6-1.7-0.2-2.4c-0.2-0.1-0.3-0.3-0.5-0.2c-1.1,0.4-1.1-0.4-1.2-1c-0.1-0.3,0-0.7-0.4-0.9
		c-2.4-1-4.8-1.5-7.3-1.9c-3.2-0.6-6.4-0.6-9.6-0.9c-0.3,0-0.7-0.1-1,0.2c-0.1,0.2,0,0.6-0.4,0.6c-0.1-0.8-0.5-1.1-1.4-1.2
		c-4,0-8.1-0.1-12.1-0.3c-1.7-0.1-3.5-0.1-5.2-0.7c-0.6-0.2-1.2-0.1-1.8-0.1c0.1-0.5,0.6-0.4,0.9-0.4c0.7,0,1.4,0,2.1,0
		c2.1,0.2,4.2,0,6.3,0.3c2.8,0.4,5.7,0.2,8.5,0.5c0.1,0,0.1,0,0.2,0c0.4-0.1,1,0.2,1.1-0.4c0.1-0.5-0.6-1.3-1.2-1.3
		c-0.7,0-1.3,0.1-2,0.1c-4.2,0.1-8.3,0-12.5-0.2c-2.3-0.1-4.7-0.5-7-0.8c-3.2-0.4-6.3-0.9-9.5-1.6c-0.2,0-0.5-0.1-0.7-0.2
		c-0.5-0.4-1.2-0.5-1.8-0.6c-1.3-0.1-2.6-0.5-3.8-0.7c-3.7-0.7-7.4-1.6-11.1-2.4c-2.4-0.5-4.7-1.1-7-1.9c-2.8-0.9-5.7-1.5-8.5-2.5
		c-1.3-0.5-2.7-0.7-4-1.2c0,0.1,0.1,0,0.1,0c0.9,0.2,1.6,0.6,2.5,0.8c1.6,0.3,3.2,1,4.8,1.5c3.5,1.1,6.9,2.6,10.4,3.6
		c2.8,0.8,5.6,1.6,8.4,2.4c1.3,0.4,2.5,0.8,3.8,1.2c0.3,0.1,0.5,0.1,0.6,0.5c-0.4,0.4-0.9,0.2-1.3,0.1c-1.8-0.4-3.5-0.8-5.2-1.4
		c-1.6-0.6-3.3-0.9-4.9-1.4c-2.6-0.7-5.1-1.4-7.6-2.2c-5-1.7-10-3.5-15.1-5.1c-4.3-1.4-8.8-2.6-13.2-3.8c-0.8-0.2-1.6-0.5-2.4-0.7
		c-0.6-0.5-0.9-1.1-0.7-1.9c0.2,0,0.4,0,0.5,0c1.6,1.2,3.7,1.1,5.5,1.7c1.9,0.6,3.8,1,5.7,1.5c2.5,0.6,5,1.2,7.5,2
		c4,1.3,8.2,2.1,12.3,3c2.6,0.5,5.1,1.1,7.7,1.7c0.3,0.1,0.7,0.1,1,0.1c0.4,0.4,1,0.2,1.4,0.6c3.2,0.7,6.4,1.3,9.6,2
		c2.6,0.6,5.3,1.1,7.9,1.6c1.5,0.3,3.1,0.7,4.7,0.7c0.8,0,1.4,0.4,2.2,0.5c2.6,0.3,5.2,0.7,7.9,0.9c4.9,0.3,9.8,0.3,14.7,0
		c2.4-0.2,4.7-0.5,7-0.8c0.3-0.4,0.9,0,1.3-0.4c2.6-0.5,5.1-0.9,7.7-1.4c2-0.4,3.9-1.1,5.8-1.6c1-0.3,2-0.7,3-0.8
		c1.1-0.7,2.4-1,3.6-1.5c-0.4,0.1-0.8,0.2-1.2,0.4c-1.1,0.4-2.2,0.9-3.4,0.8c-0.3,0-0.4,0.2-0.7,0.3c-1.5,0.3-3.1,0.6-4.6,1
		c-4.5,1-9.1,1.5-13.7,1.7c-5.8,0.2-11.6,0-17.3-0.3c-3.9-0.2-7.7-0.6-11.6-1c-3.6-0.4-7.2-0.9-10.8-1.4c-1.9-0.3-3.8-0.5-5.7-1
		c-2.1-0.6-4.4-0.8-6.6-1.2c-3.5-0.6-7-1.3-10.5-2c-2.1-0.4-4.3-0.7-6.3-1.4c-2.9-1-6-1.5-8.9-2.3c-2.9-0.9-5.9-1.5-8.8-2.6
		c-1.2-0.4-2.5-0.9-3.7-1.4c-0.2-0.1-0.4-0.2-0.8-0.4c1-0.2,1.4,0.3,2,0.4c2.5,0.5,4.8,1.7,7.3,2.3c3.9,1,7.8,2.1,11.7,3
		c3,0.7,5.9,1.6,9,2.2c3.6,0.7,7.1,1.5,10.7,1.9c1.3,0.2,2.5,0.6,3.8,0.6c1.1,0.1,2.2,0.3,3,0.4c-0.9,0-2-0.4-3.2-0.8
		c-4.9-1.2-9.6-2.7-14.2-4.6c0.2-0.5,0.5-0.3,0.8-0.2c15.3,5.7,31.2,8.4,47.5,9c0.8,0.3,1.7,0.1,2.5,0c0.2,0,0.4-0.1,0.4-0.3
		c-0.1-1.4,0.9-0.5,1.4-0.6c3.3,0.3,6.5,0.5,9.8,0.8c3,0.2,5.9-0.5,8.8-0.9c1.5-0.2,3-0.6,4.7-0.9c-0.9-0.3-1.7-0.1-2.5-0.1
		c-3.3,0.2-6.5,0-9.8-0.3c-4.1-0.4-8-1.3-12-2c-4.1-0.7-8.2-1.7-12-3.1c-4.1-1.5-8.4-2.9-12.3-4.9c-2.8-1.5-5.7-2.8-8.4-4.5
		c-2.5-1.6-5.2-3.1-7.5-4.9c-2.2-1.7-4.7-3.1-6.7-5c-2-1.7-4.2-3.1-6.2-4.9c-1.9-1.7-3.9-3.1-5.9-4.6c-0.1-0.1-0.2-0.2-0.2-0.3
		c0-0.1,0-0.1,0.1-0.1c1.4,0.7,2.5,1.7,3.7,2.7c2.8,2.1,5.7,4.3,8.4,6.5c2.1,1.8,4.5,3.2,6.7,4.9c2.4,1.9,5.2,3.3,7.7,5
		c2.7,1.8,5.7,3,8.5,4.5c2.1,1.1,4.2,1.9,6.4,2.8c2,0.8,4,1.4,6,2.1c1.7,0.6,3.5,1.3,5.3,1.7c3.1,0.8,6.2,1.5,9.3,2
		c2.2,0.4,4.4,0.7,6.6,1c1.6,0.2,3.3,0.3,4.9,0.4c0.9,0.1,1.7,0.4,2.6,0.3c1.9,0.1,3.9,0.4,5.8-0.1c0.2-0.1,0.4,0,0.6,0
		C351.1,138.2,352.3,138,353.5,137.7"/>
	<path class="st9" d="M228.4,77c-1.7,0.3-3.5,0.6-5.2,0.9c-3.5,0.7-7,1.5-10.5,2.4c-0.6,0.2-1.3,0.1-1.9,0.4c-0.3,0.3-0.7,0.3-1,0.6
		c-1.7,0.4-3.4,0.9-5,1.4c-2,0.6-4,1.5-5.9,2.4c-0.6,0.4-1.2,0.9-1.8,1.2c-2.3,1.2-4.4,2.5-6.5,4c-2.2,1.6-4.3,3.2-6.3,4.9
		c-1.4,1.2-2.7,2.6-4.1,3.9c-0.1,0.3-0.4,0.4-0.6,0.6c-1.9,2.3-3.9,4.5-5.6,7c-1.7,2.6-3.3,5.2-4.8,7.9c-1.8,3.2-3.4,6.5-5,9.9
		c-1.5,3.2-2.9,6.5-4.3,9.8c-0.2,0.5-0.3,1.1-0.4,1.7c1.9-3,4.2-5.6,6.5-8.2c0.3-0.4,0.6-0.9,1.2-1c0.1,0.1,0.1,0.2,0.1,0.3
		c-1.7,2.2-3.6,4.3-5.2,6.6c-1.4,2-2.9,3.9-3.9,6.1c-0.7,1.5-1.1,3.2-1.5,4.8c-0.6,2.1-1,4.2-1.5,6.3c-0.1,0.3-0.2,0.5,0,0.8
		c0.2-0.5,0.4-0.8,0.6-1.2c0-0.1,0.1-0.1,0.2,0c-0.2,1.1-0.9,2-1.2,3.1c-0.8,2.1-1.1,4.3-1.5,6.4c-1,4.5-2,9.1-2.7,13.6
		c-0.7,4.3-1.1,8.7-1.4,13.1c-0.3,5.4-0.6,10.8-0.2,16.3c0.2,2.5,0.2,5.1,0.8,7.6c0.1,0.6,0.1,1.2,0.1,1.8c0,0.9,0,1.8,0.7,2.5
		c0.1,0.2,0.2,0.5,0.2,0.7c0,0.2,0,0.5-0.2,0.6c-0.4,0.1-0.5-0.2-0.7-0.4c-0.1-0.2,0-0.5-0.3-0.6c-0.4-0.1-0.3,0.2-0.5,0.4
		c-0.6,0.8-1.2,1.6-1.8,2.4c-0.6-0.1-0.6-0.5-0.4-1c0.7-0.9,1.4-1.8,2.1-2.7c0.4-0.5,0.2-1.2,0.1-1.7c-0.8-3.2-1.1-6.4-1.4-9.6
		c-0.6-7.4-0.6-14.7,0-22.1c0.3-4,0.8-8,1.4-12c0.6-3.9,1.3-7.7,2-11.6c0.4-2.1,1-4.2,1.5-6.3c0.7-3.1,1.6-6.1,2.5-9.1
		c1.1-3.5,2.2-7.1,3.5-10.5c0.7-1.9,1.5-3.8,2.2-5.7c1.2-2.9,2.5-5.8,3.9-8.6c1.8-3.7,3.8-7.2,6.1-10.7c2.3-3.5,4.9-6.8,7.9-9.9
		c1.7-1.7,3.5-3.2,5.3-4.8c2.2-2,4.9-3.4,7.3-5.1c2.9-2,6.1-3.3,9.1-4.9c2-1.1,4-1.9,6.1-2.7c2-0.8,4.1-1.4,6.1-2.2
		c2.5-1,5.2-1.7,7.8-2.3c3.2-0.8,6.4-1.5,9.7-2.1c2-0.3,3.9-0.8,5.9-1.2c1.4-0.3,2.8-0.1,4.2-0.6c0.5-0.2,1.6-0.1,2.4,0
		c0.2,0,0.3-0.1,0.5-0.2c1.6-0.4,3.3-0.5,4.9-0.5c5.8-0.3,11.7-0.6,17.5-0.4c5,0.2,10.1,0.6,15.1,1.4c3.8,0.7,7.6,1.6,11.3,2.5
		c2.3,0.6,4.6,1.3,7,1.9c0.1,0.1,5.2,1.7,5.2,1.8c-0.6,1-2.9,2.4-3.6,2.7c-0.2,0-0.5,0-0.7-0.1c-4.1-1.4-8.3-2.1-12.5-2.9
		c-0.9-0.7-2-0.5-3-0.4c-2.2-0.3-4.5-0.6-6.7-0.9c-3.2-0.4-6.4-0.5-9.7-0.7c-2.3-0.1-4.6-0.2-6.9,0c-2.9,0.2-5.8,0.1-8.7,0.1
		c-2.5,0-5,0.4-7.5,0.5c-2.8,0.1-5.6,0.5-8.3,0.7c-1.2,0.1-2.4,0.2-3.5,0.6c-0.5,0.2-0.9,0.1-1.4,0.2
		C230.3,76.9,229.3,76.6,228.4,77"/>
	<path class="st9" d="M369.6,133.5c-0.1,0.3-0.2,0.4-0.5,0.4c-1.6,0-3.2,0.2-4.8,0.3c-0.9,0.1,0.2-0.7-0.3-0.8
		c0-0.7,0.5-0.6,0.9-0.7c1.4-0.4,2.9-0.3,4.3-0.9c0.3-0.1,0.6-0.2,0.8-0.3c-2.6,0.8-5.3,0.8-8,0.6c-2.7-0.2-5.4-0.6-8-1.4
		c-0.3-0.1-0.7-0.2-0.9-0.4c0.1-0.7,0.7-0.4,1.1-0.5c2.6,0.5,5.2,0.9,7.8,1.2c1.3,0.2,2.6,0.1,3.9-0.1c2.6-0.3,5.1-0.8,7.2-2.2
		c2-1.4,3.8-3,4.9-5.2c0.7-1.4,1.5-2.8,1.9-4.2c-0.8,1.2-2,2.3-3.3,3.2c-2.9,1.9-5.8,3.7-9.2,4.5c-2.7,0.6-5.3,0.9-8.1,0.6
		c-2.6-0.3-5.1-0.7-7.6-1.5c-0.6-0.2-1.3-0.3-1.8-0.9c0.1-0.5,0.5-0.4,0.8-0.4c1.3,0.1,2.5,0.6,3.7,0.9c4.8,1.1,9.5,1,14.3-0.2
		c1.3-0.3,2.5-0.8,3.9-1.5c-2.7,0.3-5.2,0.4-7.7,0c-5.5-0.9-10.9-2.1-15.8-4.6c-3.6-1.8-7.3-3.5-10.6-6c-1.3-1-2.8-1.7-4.1-2.7
		c-3.1-2.4-6.3-4.7-9.4-7.1c-3.4-2.7-7-5.3-10.5-7.8c-3.5-2.5-7.2-4.7-10.7-7.2c-1.8-1.2-3.7-2.1-5.5-3.3c-0.9-0.6-1.7-1.1-2.5-1.7
		c-0.1-0.2-0.2-0.5,0.1-0.7c1.2-0.1,2,0.7,2.8,1.2c2,1.4,4.2,2.4,6.2,3.8c3.3,2.3,6.9,4.2,10,6.8c1,0.8,2.2,1.4,3.2,2.2
		c3.2,2.5,6.5,4.8,9.6,7.4c1.6,1.4,3.5,2.5,5.2,3.8c5,3.7,10.1,7.1,15.8,9.7c2.2,1,4.3,2,6.6,2.7c1,0.3,2,0.5,2.9,0.8
		c-2.1-0.9-3.8-2.3-5.4-3.7c-3.2-2.8-6.1-5.9-9.1-9c-0.9-1-2-1.8-3-2.7c-2.9-2.9-6.1-5.6-9.6-8c-3.8-2.6-7.6-5.4-11.6-7.8
		c-2.8-1.7-5.8-3.2-8.6-4.9c-3.4-2-7.1-3.3-10.7-4.9c-0.1,0-0.2,0-0.2-0.1c-0.5-1.1-1.8-1-2.7-1.5c-0.3-0.4-0.7-0.8-1-1.1
		c-0.3-0.4-0.9-0.8-0.5-1.4c0.4-0.5,0.9-1.1,1.8-0.8v0c0.8,0.4,1.2,1.2,1.9,1.8c1,0.8,1.8,0.8,2.6-0.2c0.4-0.5,0.7-0.3,1.2-0.2
		c0.5,0,1,0.1,1.5,0.4c-0.2,0.3-0.6,0.3-0.9,0.3c-0.1,0-0.2,0-0.3,0c0.1-0.1-0.2-0.1-0.2-0.1c0.4,0.2,0.8,0.3,1,0.6
		c1.8,0.5,3.3,1.5,4.9,2.3c2.5,1.3,5.1,2.4,7.4,3.9c2.6,1.6,5.3,3,7.7,4.8c2.3,1.8,4.9,3.1,7.1,5c2.5,2.1,5.3,3.7,7.6,6
		c0.2,0.4,0.8,0.7,1.3,0.9c0.5,0.4,1,0.8,1.4,1.2c0.5,0.7,1.1,0.9,1.6,1.2c1.6,1.8,3.7,3.1,5.4,4.7c2,1.9,4.4,3.5,6.4,5.3
		c2,1.8,4.2,3.1,6.2,4.7c2,1.6,4.1,2.7,6.5,3.6c2.4,0.9,5,1.6,7.5,0.4c1.7-0.9,3.1-2,4.2-3.6c0.7-1,1.5-1.9,2.3-2.8
		c-1.1,6.2-4,11.4-9.4,15.2c0.3,0,0.6-0.1,0.9-0.1c0.1,0.1,0.1,0.2,0,0.3c-0.2,0.6-0.7,0.7-1.2,0.8c-1.2,0.4-2.4,0.7-3.6,1
		c-0.9,0.2-1.7,0.8-2.7,0.6C367.2,134,368.4,133.5,369.6,133.5"/>
	<path class="st10" d="M239.3,128.7c-4.5-1.7-9.2-2.7-13.9-3.9c-2.9-0.7-5.7-1.7-8.6-2.4c-3.9-1-7.7-2.1-11.6-3.2
		c-0.6-0.2-1.1,0-1.3,0.6c-1,2.7-1.9,5.3-3.3,7.8c-2,3.7-4.7,6.9-7.8,9.8c-1.9,1.9-4.1,3.4-6.2,5.1c-2.4,1.9-5.1,3.3-7.6,5
		c-2.4,1.6-5,2.9-7.7,4.2c-0.3,0.1-0.5,0.2-0.8,0.2c-0.2,0.1-0.3,0-0.2-0.2c2.3-1,4.6-2.1,6.7-3.5c2.5-1.7,5.2-3,7.5-4.9
		c2-1.6,4.2-3.1,6.1-4.8c3.3-3,6.2-6.3,8.7-10c0.2-0.3,0.2-0.5,0.2-0.8c-0.6,0.1-0.6,0.7-0.9,1.1c-3,3.1-6.2,6.1-9.5,8.9
		c-2.1,1.8-4.4,3.3-6.5,5.1c-2.2,1.8-4.6,3.1-6.9,4.6c-3.2,2.2-6.7,3.7-10.2,5.3c-0.9,0.4-1.7,0.8-2.6,1c2.5-1.8,5.3-3.1,7.8-4.9
		c-0.3,0.7-1.1,1-1.5,1.8c1.5-0.7,3.1-1.3,4.4-2.3c1.8-1.3,3.7-2.2,5.5-3.4c3-2,5.9-4.1,8.6-6.4c1.8-1.5,3.7-3,5.4-4.7
		c1.7-1.7,3.5-3.3,5-5.1c2.3-2.6,4.4-5.3,5-8.8c0-0.2,0-0.4,0-0.8c-1,1.5-1.8,2.8-2.7,4.1c-0.8,1.1-1.6,2.2-2.5,3.2
		c-2.1,2.4-4.5,4.6-7,6.6c-2.2,1.8-4.6,3.2-6.9,4.9c-2.7,1.9-5.8,3.2-8.6,5c-2.7,1.7-5.8,2.9-8.4,4.8c-2.1,1.5-4.3,2.8-6.2,4.4
		c-3.4,3-6.4,6.3-8.8,10.1c-1.5,2.3-2.9,4.6-3.9,7.1c-0.1,0.2-0.2,0.3-0.3,0.5c-0.1,0.2-0.2,0.5-0.5,0.3c-0.3-0.2-0.2-0.4-0.1-0.6
		c1.6-4.1,3.8-7.9,6.6-11.4c2.9-3.7,6.3-6.8,10.1-9.6c2.6-1.9,5.4-3.3,8.2-4.9c3-1.8,6.4-3.1,9.3-5c3.1-2,6.2-4.1,9-6.5
		c2.8-2.4,5.4-5.1,7.9-7.7c1.5-1.6,2.7-3.4,4.1-5c0.4-0.5,0.3-0.8-0.3-1c-2.6-0.9-5.3-1.8-7.9-2.7c-0.9-0.3-1.8-0.5-2.5-1.2
		c0.1-0.4,0.3-0.7,0.6-0.8c1-0.2,1.5,0.6,2.3,0.9c4.4,1.5,8.9,2.7,13.4,4.2c3.6,1.2,7.4,1.9,11,3c2.6,0.8,5.3,1.1,7.8,1.9
		c2,0.7,4,1.1,6,1.7c2.6,0.7,5.2,1.4,7.8,2c0.3,0.1,0.6,0.3,0.8,0.4c0.1,0.1,0.1,0.2,0.2,0.2c0.3,0.3,0.6,0.8,0.2,1.1
		c-0.3,0.3-0.8-0.1-1-0.3c-0.3-0.3-0.6-0.5-0.8,0.1C239.9,128.9,239.6,128.8,239.3,128.7"/>
	<path class="st11" d="M303.6,77.4c0.3-0.3,0.7-0.1,1.1-0.2c2.3,0.5,4.6,1.2,6.7,2.1c3.5,1.6,7.3,2.8,10.5,4.9
		c2.5,1.6,5.2,3,7.5,4.9c1.9,1.6,4.1,2.9,5.9,4.5c2.1,1.8,4.5,3.3,6.7,5c2.5,1.9,5.2,3.3,7.9,4.9c2.2,1.4,4.5,2.3,6.9,3.3
		c1.6,0.7,3.3,1.1,5,1.7c1.2,0.4,2.4,0.8,3.6,1c2.1,0.4,4.2,0.7,6.3,0.8c3.8,0.2,7.6,0.1,11.3-0.4c1.7-0.2,3.4-0.7,5.1-0.7
		c0.5-0.2,1-0.3,1.5-0.6c2.2-0.6,4.4-1.2,6.7-1.8c0.4-0.1,0.8-0.3,1.2-0.2c0.2,0.1,0.3,0.2,0.2,0.4c-1.5,0.6-3,0.9-4.5,1.5
		c-1.2,0.5-2.5,0.9-3.8,1.1c-3,0.6-6,1.2-9,1.4c-3,0.2-6,0.2-9,0c-2.4-0.2-4.8-0.6-7.1-1c-1.2-0.2-2.4-0.4-3.5-0.9
		c-2.3-1-4.8-1.6-7.1-2.7c-1.4-0.7-3-1.2-4.3-2.1c-2.6-1.7-5.6-3-8-5c-1.9-1.6-4-2.9-5.8-4.5c-2.1-1.9-4.5-3.3-6.6-5.1
		c-2.3-1.9-4.9-3.1-7.4-4.7c-2.2-1.4-4.6-2.5-7-3.5c-1.3-0.6-2.8-0.9-4-1.6c-1.4-0.8-2.9-1.1-4.3-1.7c-0.4-0.2-0.8-0.3-1.2-0.4
		C304.7,77.5,304,77.9,303.6,77.4"/>
	<path class="st9" d="M231.1,98.3c2.2,1.6,4.6,2.9,6.8,4.3c3.1,2,6.2,3.8,9.3,5.9c2.7,1.8,5.7,3.2,8.4,5.1c2.7,1.8,5.8,3.1,8.6,4.8
		c3.3,1.9,6.9,3.3,10.3,5c3.3,1.7,6.9,2.9,10.2,4.5c3.4,1.6,6.9,2.8,10.4,4.1c5,1.9,10,3.5,15.2,4.8c1.3,0.3,2.5,0.6,3.8,0.9
		c0.9,0.2,1.7,0.9,2.7,0.9c0.8,0.1,1.6,0.3,2.4,0.5c0.6,0.2,1.3,0,1.9,0.2c0.3,0.1,0.8,0,0.7,0.5c0,0.3-0.5,0.2-0.8,0.2
		c-0.3-0.1-0.6,0-0.9-0.1c-2.5-0.3-5-0.8-7.3-1.5c-3.1-1-6.4-1.7-9.5-2.7c-2-0.7-4.1-1.2-6-2c-2-0.8-4-1.5-6-2.3
		c-2.4-0.9-4.9-1.7-7.1-2.8c-3.3-1.6-6.9-2.8-10.1-4.6c-3.2-1.7-6.7-3.1-9.8-4.9c-2.4-1.4-5-2.6-7.4-4c-3.3-1.9-6.7-3.8-9.9-5.8
		c-2.5-1.7-5.2-3.1-7.6-4.9c-2.4-1.8-5.1-3.2-7.6-5c-0.4-0.3-0.6-0.7-1.1-0.8C230.7,98.2,230.9,98.2,231.1,98.3"/>
	<path class="st10" d="M148.1,206c-0.1-0.6,0.4-1,0.7-1.4c1.3-1.6,1.3-3.6,1.8-5.5c0.6-2.3,1.4-4.5,2.2-6.7c0.7-1.9,1.8-3.5,2.9-5.1
		c1.5-2.1,3.6-3.5,5.8-4.7c1.5-0.8,3.1-1.5,4.8-1.8c2.1-0.4,4.2-0.9,6.4-0.8c0.2,0,0.6-0.1,0.6,0.3c0,0.4-0.4,0.3-0.6,0.4
		c-2.1,0.2-4.3,0.3-6.4,0.9c-3.3,0.8-6.4,2.3-8.7,4.8c-2.1,2.3-3.6,5-4.5,7.9c-0.6,1.7-1.1,3.4-1.4,5.2c0.7-0.7,1.2-1.6,1.6-2.5
		c0.8-1.6,1.8-2.9,2.6-4.5c1.6-3.1,4.3-5,7-7.1c1.4-1.1,3.1-1.5,4.8-2.1c0.8-0.3,1.5-0.6,2.3-0.9c0.2-0.1,0.4-0.4,0.6,0
		c0.1,0.3-0.2,0.3-0.4,0.3c-2,1-4,2.2-5.7,3.6c-2.4,2-4.9,4-7,6.5c-2.1,2.5-3.9,5.1-5.3,8c-1.2,2.5-1.9,5.1-2.1,7.8
		c-0.6,0-0.7-0.5-0.8-0.9c-0.1-0.4-0.1-0.8-0.1-1.2c0.1-0.5-0.1-0.5-0.5-0.3C148.5,206.2,148.3,206.2,148.1,206"/>
	<path class="st12" d="M320.1,139.9h1.8c-1-0.5-2-0.1-2.7-0.8c0.1,0,0.2,0,0.3,0c0.3-0.2,0-0.2-0.1-0.2c-2.9-1-5.9-1.9-8.8-3
		c-2.3-0.9-4.6-1.7-6.8-2.9c-2.1-1.1-4.3-2.1-6.4-3.1c-2.8-1.4-5.5-3.1-8.2-4.7c-3.2-1.9-6.4-3.9-9.3-6.1c-2.7-2-5.7-3.7-8.3-5.9
		c-1.7-1.4-3.7-2.5-5.4-3.9c-2-1.6-4.2-3.1-6.4-4.6c-0.9-0.6-1.7-1.3-2.5-2c0.2-0.2,0.4-0.1,0.6,0c2.8,2,5.7,3.8,8.4,5.9
		c2.2,1.7,4.6,3.1,6.7,4.8c2.2,1.8,4.7,3.1,6.9,4.8c2.4,1.8,5.1,3.2,7.5,4.9c2.6,1.8,5.6,3.1,8.3,4.8c2.9,1.8,6,3,9,4.6
		c3.4,1.8,7,3.1,10.7,4.4c3.1,1.1,6.3,2.2,9.5,2.7c0.9,0.1,1.8,0.2,2.6,0.4H326c0.7,0.4,0.6,0.8,0.1,1.1c-0.5,0.3-2.6,0.2-3.1-0.2
		h1.5c-0.3-0.4-0.8-0.2-1.1-0.4c0.5-0.3,1,0,1.7-0.2c0,0-0.2-0.1-0.1,0c-1.1,0.4-2.1-0.3-3.2,0C321.2,140.3,320.7,140,320.1,139.9"
		/>
	<path class="st13" d="M152.1,212.4c-0.5,1.6-1.2,3.1-1.7,4.7c-0.3,1-0.5,2-0.3,3c0.1,1,0.2,2,0.3,3.2c1.1-1.4,2.1-2.6,2.7-4.1l0,0
		c0.9-0.8,1.4-1.9,1.8-2.9c0.7-1.5,1.6-2.8,2.2-4.3c0.9-2.1,2.4-3.9,3.5-5.8c0.1-0.3,0.5-0.4,0.7-0.6c-0.5,1.6-1.5,3-2.2,4.5
		c-1,2-2.2,4-3.2,6c-0.7,1.4-1.6,2.6-2.4,4c-0.8,1.4-1.7,2.6-2.7,3.8c-0.3,0.4-0.3,0.8-0.3,1.2c0,0.3,0.2,0.8-0.3,1
		c-0.6,0.2-0.3-0.6-0.7-0.7c-0.4,1.1-1.4,1.6-2.3,2.3c-0.2,0-0.3-0.1-0.3-0.3c1.1-1.3,0.9-2.9,0.5-4.3c-0.5-1.8-1.1-3.6-1.7-5.3
		c-0.1-0.4-0.2-0.9,0.5-0.5c0.1,0.1,0.1,0.3,0.2,0.5c-0.2-1-0.7-2,0-3c1.1,0.1,1.5,0.4,1.5,1.4c-0.1,2.6,0.6,5.2,0.7,7.8
		c0,0.2-0.1,0.6,0.3,0.7c0.4,0,0.4-0.4,0.4-0.7c0-0.5-0.1-1.1,0-1.6c-0.1-2.2-0.4-4.4-0.4-6.7c0-0.4,0-0.9,0.3-1.2
		c0.2-0.2,0.3-0.5,0.7-0.5c0.3,0.1,0.2,0.4,0.2,0.6c0,0.2,0.1,0.3,0.3,0.3c0.5-0.9,0.2-2.2,1.6-2.6
		C152.1,212.1,152.1,212.2,152.1,212.4"/>
	<path class="st14" d="M166.2,189c1.4-1,3.2-1.4,4.7-2.1c0.2-0.1,0.4-0.1,0.5,0.2c0.1,0.3,0.1,0.4-0.3,0.6c-1,0.5-2,1-3,1.4
		c-2.9,1.1-4.9,3.2-6.9,5.4c-2.5,2.7-4.3,5.9-6.3,8.9c-1.1,1.8-2,3.7-3.3,5.3c-0.4-0.2-0.5-0.5-0.4-0.9c0.2-0.7,0.1-1.4,0.4-2.1
		c1-3,2.6-5.7,4.3-8.4c1.6-2.4,3.7-4.4,5.9-6.3c0.9-0.8,1.9-1.3,3-1.8c0.3-0.1-0.2,0.6,0.3,0.3C165.5,189.3,165.8,189.1,166.2,189"
		/>
	<path class="st15" d="M343.1,227.3c3.1,5,1.4,10.3-1.4,13.8c0-4.5-0.7-8.8-0.2-13.2c0-0.4,0-0.7,0-1.1c-0.3-0.4-0.3-0.9-0.2-1.3
		c0.1-0.3,0.2-0.5,0.6-0.4C342.6,225.7,342.9,226.4,343.1,227.3"/>
	<path class="st16" d="M146.1,177.8c0.7-4,2.2-7.8,4.6-11.1c1.1-1.5,2.5-2.7,3.9-3.9c3.9-3.2,8.5-4.1,13.4-3.7
		c1.8,0.1,3.5,0.5,5.2,1.2c-0.2,0.6-0.6,0.2-0.9,0.1c-2.8-0.6-5.6-0.9-8.4-0.6c-2.6,0.3-5.1,0.9-7.1,2.4c-2.2,1.6-4.2,3.4-5.7,5.6
		c-2.3,3.3-3.6,7-4.6,10.8c-0.1,0.3-0.1,0.5-0.1,0.8C145.6,178.9,146.1,178.3,146.1,177.8"/>
	<path class="st17" d="M149.4,222.3c0,0.4,0,0.7,0,1.1c0.2,0.8-0.1,1.5-0.9,1.9c-0.5-1.4-0.4-2.9-0.6-4.3c-0.3-1.7-0.4-3.3-0.4-5
		c0-0.8-0.3-1.2-1.2-1.3c-0.3-0.3-0.3-0.6-0.2-0.9c0.8-0.4,0.9-1,0.7-1.8c-0.1-0.6,0-1.2,0-1.7c0-0.6,0.1-1.1,0.2-1.7
		c0.3-0.5,0.2-1,0-1.6c-0.2-0.5-0.5-1.1,0.3-1.4v1c0.5,0,0.3-0.5,0.6-0.6c0.3,0.7,0.5,0.3,0.8,0c0.2-0.2,0.3-0.4,0.6-0.8v1
		c-0.2,0.6-0.2,1.3,0,1.9c0.1,0.3,0.2,0.7,0,1c-0.5,1.2-0.4,2.4-0.3,3.6c0,0.8-0.2,1.6-0.2,2.4C148.9,217.6,149,220,149.4,222.3"/>
	<path class="st18" d="M146.7,192.5c0.1-1.9,0.3-3.9,0.6-5.8c0.5-2.7,1.1-5.3,2-7.8c1.7-4.5,4-8.5,8.4-11.3c2.6-1.7,5.5-2.4,8.5-2.7
		c0.2,0,0.3,0,0.5,0c0.1,0,0.1,0.1,0.3,0.1c-1.1,0.2-2.1,0.4-3.1,0.6c-3.6,0.7-6.5,2.7-8.9,5.2c-2.3,2.3-3.8,5.2-4.9,8.2
		c-1.2,3.1-1.9,6.3-2.4,9.6c-0.3,2.5-0.8,5-0.8,7.5c-0.4,0-0.4-0.4-0.4-0.6C146.7,194.5,146.5,193.5,146.7,192.5"/>
	<path class="st19" d="M200.7,107.1c2.8,1,5.4,2.5,8.1,3.7c1.9,0.8,3.9,1.7,5.7,2.6c2,1,4.1,2,6.1,2.9c1.6,0.7,3.2,1.3,4.7,2.1
		c3.1,1.7,6.4,2.8,9.7,4.2c2.8,1.2,5.5,2.4,8.4,3.3c0.4,0.1,0.6,0.4,0.8,0.7c-1.6-0.3-3.1-0.9-4.6-1.5c-4.8-2-9.6-3.8-14.3-6
		c-3.6-1.7-7.3-3.1-10.7-5c-3.5-1.9-7.2-3.2-10.7-4.9c-1.4-0.7-2.8-1.4-4.3-1.9C199.9,106.7,200.3,107,200.7,107.1"/>
	<path class="st20" d="M146.7,192.5c0.2,1.2-0.2,2.4,0.2,3.6c0.2,1.9-0.5,3.8-0.1,6c0.3-2.3,0.8-4.2,1.4-6.2
		c0.8-2.8,1.9-5.6,3.4-8.2c0.1-0.1,0.2-0.2,0.3-0.3c0.2-0.2-0.1-0.8,0.5-0.5c0.4,0.2,0,0.5-0.1,0.7c-1.6,3-2.7,6.1-3.5,9.4
		c-0.7,2.9-1.1,5.8-1.4,8.7c-0.4,0.4-0.5,1-0.1,1.4c0.7,0.6,0.5,1.1,0.1,1.6c-0.1,0.3-0.2,0.6-0.4,0.7c-0.2,0.1-0.4,0.2-0.7,0.1
		c-0.3-0.1-0.1-0.4-0.1-0.6c0.2-0.4,0-0.8,0.1-1.2c0-2.2,0-4.4,0.1-6.5c0.1-1.1,0.1-2.1,0-3.2C146.2,196.1,146.5,194.3,146.7,192.5"
		/>
	<path class="st21" d="M347.9,228.7c-1.4-4-3.6-7.4-7.1-10.3c-0.1,1.5,0.4,2.6,0.3,3.8c0,0.2,0.2,0.6-0.2,0.6
		c-0.3,0-0.4-0.3-0.4-0.6c0.1-2.4-0.6-4.8-0.7-7.2c-0.1-1.7-0.4-3.5-0.6-5.2c0.2-0.3,0-0.7,0.2-1c0.7,0.2,0.5,0.8,0.6,1.2
		c-0.2,0.4,0.6,0.6,0.3,1c-0.4,1.4-0.3,2.8,0.7,4c2.5,2.9,4.9,6,6.8,9.3c0.4,0.8,0.8,1.5,1.1,2.4c0,0.3,0,0.5-0.3,0.6
		c-0.6-0.2-0.8-0.7-0.9-1.2c-0.1-0.4-0.3-0.9-0.6-1.2c-0.4-0.7-0.8-1.3-1-1.7c0.4,0.5,0.7,1.3,1.3,2.1c0.3,0.9,0.9,1.7,1,2.7
		C348.3,228.2,348.4,228.6,347.9,228.7"/>
	<path class="st22" d="M153,208.7c1.4-2.3,3-4.5,4.7-6.7c2.1-2.6,4.5-5,6.7-7.5c0.2-0.2,0.4-0.3,0.7-0.4c-3.2,5.3-8,9.6-11.1,14.9
		C153.5,209.3,153.1,209.4,153,208.7"/>
	<path class="st23" d="M146.9,178.8c0.2-1.5,0.9-2.8,1.4-4.2c1.2-2.8,2.8-5.3,4.8-7.7c1.6-1.9,3.8-3.2,6-4.3c1.7-0.8,3.4-1,5.2-1.3
		c0.2,0,0.5-0.2,0.6,0.1c0.1,0.4-0.3,0.3-0.5,0.3c-4,0.6-7.6,2.3-10.4,5.1c-1.3,1.3-2.7,2.8-3.5,4.5c-1.1,2.1-2.3,4.1-2.9,6.4
		c-0.1,0.3-0.2,0.6-0.4,0.9C147.1,178.9,147,178.9,146.9,178.8"/>
	<path class="st24" d="M332.4,149.8c0.3-0.2,0.1-0.5,0.2-0.7c0.6-0.1,0.5,0.5,0.7,0.8c0.7,1.7,1.2,3.4,1.6,5.2
		c0.2,0.8,0.7,1.3,1.5,1.4c1.5,0.3,2.7,1.1,4,1.7c0.2,0.1,0.5,0.3,0.7,0.4c0.3,0.2,0.6,0.5,0.4,0.8c-0.2,0.4-0.6,0.1-0.9,0
		c-1.4-0.7-2.8-1.2-4.2-1.8c-0.3-0.1-0.6-0.3-0.9-0.1c-0.2,0.2-0.2,0.5-0.1,0.7c0.1,0.6,0.3,1.1,0.5,1.7c0.1,0.5,0.5,0.5,0.9,0.6
		c1.1,0.3,2.3,0.3,3.1,1.1c0,0.1,0,0.2-0.1,0.3c-0.8,0.3-1.5,0-2.2-0.2c-1.5-0.4-1.7-0.3-1.4,1.2c0,0.4,0,0.8-0.6,0.8
		c-0.1-0.7-0.1-1.3-0.2-2c-0.1-0.6-0.4-0.9-1.1-0.9c-0.5,0-1.2,0.1-1.8-0.5c0.8,0.1,1.4,0.1,2.1,0.2c0.3,0,0.7,0,0.5-0.4
		c-0.4-0.8-0.2-1.6-0.3-2.4c-0.1-1-0.7-1.1-1.5-1.2c-0.5,0-1,0.1-1.4-0.1c0-0.1,0-0.2,0-0.3c0.6,0,1.2,0,1.8,0
		c0.6,0.1,0.7-0.2,0.6-0.7c-0.3-1-0.5-2.1-0.9-3.1C333.1,151.6,332.7,150.7,332.4,149.8"/>
	<path class="st25" d="M200.7,107.1c-0.3,0.1-0.7-0.2-1,0.2c-2.1-0.9-4.1-1.8-6.2-2.6c-3.3-1.3-6.5-2.5-9.9-3.5
		c-2.1-0.6-4.2-1.2-6.3-1.9c-1-0.3-2-0.6-3-0.9c0.1-0.3,0.3-0.5,0.6-0.6c0.1,0.8,1,0.7,1.3,0.7c1.5,0.2,2.9,0.9,4.3,1.3
		c2.8,0.7,5.6,1.6,8.3,2.6c1.7,0.6,3.3,1.4,4.9,2C196,105.2,198.3,106.2,200.7,107.1"/>
	<path class="st26" d="M191.8,85c0.5-0.6,1.1-0.9,1.8-1.2c-0.2,0.4-0.2,0.4,0,0.4c0.8,0,1.5,0,2.3,0c1.8,0,3.5,0.2,5.2,0.6
		c1.5,0.4,3.2,0.6,4.7,1c2.7,0.7,5.3,1.7,7.8,2.7c0.5,0.2,1.2,0.4,1.5,1c-1.1,0-2-0.6-2.9-1c-2.1-0.9-4.3-1.6-6.5-2.2
		c-2.4-0.6-4.8-1.2-7.3-1.3C196.3,84.9,194,84.6,191.8,85"/>
	<path class="st27" d="M161.8,210c0.9-1.4,1.7-2.8,2.6-4.2c0.1-0.2,0.3-0.4,0.5-0.4l0.1,0c-0.5,1.4-1.5,2.5-2.1,3.8
		c-1.3,2.6-2.3,5.3-2.9,8.1c-0.3,1.4-1.1,2.6-1.8,3.9c0,0.1,0,0.2,0,0.3c-0.4-0.4-0.4-0.4,0-1.4c0-1.2,0.4-2.3,0.8-3.4
		c-0.2-0.7,0.1-1.3,0.3-1.8c0.6-1.4,1.3-2.8,1.9-4.3C161.3,210.4,161.5,210.1,161.8,210"/>
	<path class="st28" d="M264.6,127.7c-2.6-1.1-5.2-2.3-7.7-3.8c-2.8-1.7-5.8-3-8.5-4.8c-2.5-1.7-5.3-3-7.7-4.9c0-0.1,0.1-0.1,0.2-0.2
		c1.9,1.1,3.8,2.1,5.6,3.3c3.3,2.2,6.9,4,10.3,6c2.5,1.5,5.3,2.5,7.9,4C264.7,127.5,264.7,127.6,264.6,127.7"/>
	<path class="st29" d="M149.4,222.3c-0.6-2.5-0.6-5-0.6-7.4c0-1.3-0.1-2.5,0-3.8c0.1-1.6,0.4-3.3,0.6-4.9c0.2,0.8-0.4,1.8,0.6,2.4
		v1.2c0.8-1.4,1-2.9,1.7-4.2c0.1,0.7-0.1,1.3-0.2,2c-0.1,0.4-0.2,0.7,0.2,1c-0.6,1-1.1,2-1.2,3.2c-0.6-0.3-0.6-1-1.1-1.3
		c-0.2,1.4-0.1,1.4,1.1,1.5c0.1,0.7-0.5,1.4-0.4,2.1c0,0.2-0.1,0.5,0.2,0.7c0,0.2-0.1,0.4-0.3,0.6c-0.3-0.4-0.1-0.8-0.2-1.3
		c-0.6,0.4-0.7,0.9-0.7,1.5C149.1,217.8,149.3,220.1,149.4,222.3"/>
	<path class="st30" d="M291.4,144.3c0.4-0.1,0.9,0.2,1.3-0.2c0.2-0.3,0.6-0.2,0.9-0.1c1.9,0.5,3.9,0.8,5.8,1.1
		c2.9,0.5,5.8,1,8.8,1.3c0.6,0.1,1.2,0,1.7,0.5c0,0.5-0.5,0.1-0.6,0.4c-1.8-0.2-3.6-0.3-5.4-0.6c-2.7-0.5-5.4-0.9-8.2-1.4
		C294.2,145,292.8,144.6,291.4,144.3"/>
	<path class="st31" d="M348.7,251.3c-0.5,1.2-0.8,2.4-1.5,3.5c-0.4,0.6-0.8,1.2-1.5,1.3c-0.6,0.1-0.5,0.6-0.7,1
		c-0.1,0.1-0.2,0.4-0.4,0.3c-0.1,0-0.3-0.3-0.3-0.4c0.1-1.5,0.1-3,0.4-4.5c0.2,0.9,0.3,1.8,0.5,2.7c1.8-1.2,2.7-3,3.3-4.9
		C349.1,250.6,348.8,251,348.7,251.3"/>
	<path class="st24" d="M371.8,161.3c-2.6-1.2-5.1-2.6-7.6-4c-1.8-1.1-3.8-1.9-5.7-2.7c-0.5-0.2-1-0.6-1.6-0.7
		c-0.2-0.2-0.2-0.3,0-0.5c5.3,2,10.1,5.1,15.1,7.7C372.1,161.3,372,161.4,371.8,161.3"/>
	<path class="st32" d="M153.1,219.2c-0.6-1.4-0.1-2.7,0.2-4c0.9-3.1,2.4-6,4.4-8.6c0.6-0.8,1.3-1.5,2.1-2.2c0.2-0.2,0.4-0.3,0.7-0.2
		C156.1,208.4,154,213.5,153.1,219.2L153.1,219.2z"/>
	<path class="st33" d="M373.5,131.2c0-0.1,0-0.2,0-0.3c0.4-0.4,1-0.6,1.5-0.8c3.5-1.9,5.8-4.6,7.3-8.2c0-0.1,0.1-0.2,0.2-0.2
		c-0.1,1.3-0.6,2.6-1.4,3.7c-1.3,1.8-2.8,3.5-4.8,4.7C375.5,130.7,374.4,130.7,373.5,131.2"/>
	<path class="st34" d="M172.3,155.8c-4.7-1.2-9.1-0.6-13.4,1.1C161.1,154.5,170.4,153.6,172.3,155.8"/>
	<path class="st35" d="M174.8,168.7c-1.7,0.8-3.4,0.3-5.1,0.1c-1.7-0.2-3.4-0.7-5.1-0.4C168,167.4,171.3,168.2,174.8,168.7"/>
	<path class="st36" d="M146.9,227.4l0.3,0.3c-0.9,1.2-2.4,1.6-3.6,2.5c-2.6,1.8-5.5,3.2-8.3,4.8c-0.2,0.1-0.5,0.4-0.7,0.2
		c-0.2-0.4,0.2-0.4,0.4-0.6c2.1-1.1,4.3-2.2,6.3-3.5C143.2,229.9,145.2,228.9,146.9,227.4"/>
	<path class="st37" d="M224.1,102.3c1.4,0.6,2.4,1.8,3.7,2.6c1.8,1.1,3.5,2.3,5.2,3.5c1.2,0.9,2.4,1.6,3.5,2.6
		c-0.1,0.1-0.2,0.1-0.3,0c-1.3-0.4-2.3-1.3-3.3-2.1c-1.3-1.1-2.7-1.9-4.1-2.8c-1.7-1.2-3.4-2.5-5-3.8
		C223.9,102.2,224,102.2,224.1,102.3"/>
	<path class="st18" d="M162.9,156.9c2.8-0.8,5.5-1,8.3,0.2c0.2,0.1,0.6,0.2,0.6,0.6c0,0.1,0.3,0.1,0.1,0.4c-0.1,0.1-0.3,0.2-0.5,0.1
		c-2.6-1.2-5.5-1.2-8.3-1.1C163.1,156.9,163,156.9,162.9,156.9"/>
	<path class="st38" d="M231.1,98.3c-0.1,0.1-0.4,0-0.4,0.2c-2.3-1.4-4.8-2.6-7-4.2c-1.1-0.8-2.3-1.3-3.5-1.9
		c-0.4-0.2-0.8-0.4-1.2-0.8c0.2,0,0.4,0,0.6-0.1C223.5,93.5,227.2,96.1,231.1,98.3"/>
	<path class="st39" d="M166.3,206.8c-1.1,2.4-2.2,4.7-3.2,7.1c-0.2,0.4-0.5,0.7-0.7,1c-0.1,0.2-0.2,0.5-0.5,0.6
		c-0.4,0.1-0.5,0-0.4-0.4c1.6-2.8,2.7-5.9,4.4-8.6c0.1-0.2,0.1-0.4,0.2-0.7C166.7,206.1,166.4,206.5,166.3,206.8"/>
	<path class="st40" d="M161.8,210c-1,2.3-2.2,4.4-2.9,6.8c-0.1,0-0.3,0-0.4,0c-0.4-1.2,0.5-2,0.8-3c0.2-0.7,0.8-1.2,0.8-2
		c0.3-1.4,1.2-2.5,1.9-3.7c0.5-0.9,0.9-1.8,1.6-2.6c-0.3,1.2-1,2.2-1.5,3.3C161.9,209.2,161.4,209.5,161.8,210"/>
	<path class="st41" d="M335.5,163.9c0.3-0.2,0.4-0.5,0.4-0.8c0.5,0.1,0.4,0.6,0.4,0.9c0.1,1.5,0.4,1.7,1.9,2.1
		c1.1,0.3,2.2,0.5,2.8,1.6c-0.4,0-0.5,0.3-0.4,0.6c-0.9-0.2-1.7-0.3-2.4-0.9c-0.1-0.1-0.2-0.2-0.3-0.2c-1.1-0.6-1.2-0.5-1.3,0.6
		c-0.2,0.4-0.4,0-0.6,0c0-0.1-0.1-0.2-0.1-0.3c0.3-0.9,0-1.3-1-1.3c-0.2,0-0.5,0-0.5-0.3c0,0,0-0.1,0.1-0.1c0.4-0.2,1.1,0.3,1.3-0.2
		C336,165.1,335.7,164.4,335.5,163.9"/>
	<path class="st42" d="M164.2,167.1c1.6-0.7,3.1-0.9,4.6-1c1.8-0.2,3.5,0,5.2,0.7c0.4,0.2,0.4,0.4,0.3,0.7c-0.1,0.3-0.4,0-0.6,0
		c-2.1-0.9-4.2-0.9-6.4-0.7C166.4,166.9,165.4,167,164.2,167.1"/>
	<path class="st43" d="M146.3,207.6c0.1,0.5,0.1,1-0.2,1.6c0.6,0.2,1-0.1,1.2-0.6c0,0.6-0.3,1.2-0.2,1.8c-0.5,0.3-0.5,0.8-0.5,1.3
		c0,0.4,0.1,0.8-0.2,1.2c-0.4,0.2-0.4-0.1-0.5-0.3c-0.1-0.4,0-0.9,0-1.2c-0.5,0.5-0.5,1.3-0.8,2c-0.8-0.7-1.1-1.6-0.6-2.6
		c0.3,0,0.4,0,0.7-0.3C145.8,209.7,146.1,208.6,146.3,207.6"/>
	<path class="st44" d="M146.9,178.8c0.1,0,0.1,0,0.2,0c-0.9,3.1-1.6,6.3-2.1,9.5c0.4-3.5,0-7.1,1-10.5c0.2,0.5-0.2,1.1,0.2,1.6
		c-0.1,0.6-0.4,1.1-0.1,1.8C146.4,180.3,146.5,179.5,146.9,178.8"/>
	<path class="st45" d="M397.7,107.1c-0.1-0.1-0.1-0.3-0.2-0.4c2.2-0.8,4.5-1.6,6.7-2.5c0.7-0.3,1.3-0.8,2-1.1
		c0.4-0.2,0.8-0.3,1.3-0.2l0,0c-0.8,0.7-1.7,1-2.6,1.5c-1.6,1-3.4,1.2-5,2C399.1,106.6,398.4,106.8,397.7,107.1"/>
	<path class="st46" d="M264.6,127.7c0-0.2,0-0.3,0.2-0.4c2.1,0.8,4,2,6.1,2.7c1.6,0.6,3.1,1.2,4.7,1.8c-0.3,0.1-0.6-0.1-0.8,0.2
		c-3-1.1-5.9-2.3-8.8-3.6C265.4,128.3,265.1,127.8,264.6,127.7"/>
	<path class="st47" d="M160.1,211.8c0.4,0.2,0.1,0.5,0,0.7c-0.6,1.4-1.4,2.8-1.6,4.3c-0.6,1.5-1,3.1-1.5,4.7
		c-0.5-1.2,0.1-2.3,0.4-3.4c0.3-1.1,0.7-2.2,1.1-3.2C159.1,213.8,159.6,212.8,160.1,211.8"/>
	<path class="st48" d="M368.9,234.7c0.3-0.1-0.1-0.3,0-0.4c1.6,0.9,2.9,2.1,4.7,2.7c1.4,0.5,2.8,0.9,4.3,1.3
		C376.3,238.8,371.6,237,368.9,234.7"/>
	<path class="st49" d="M391.9,136.4c-1.9-0.2-3.8-0.2-5.6-0.2c-3.3,0-6.6-0.1-9.8,0.2c0.4-0.2,0.8-0.3,1.3-0.3
		c6.5-0.1,12.9-0.1,19.4,0.3H391.9z"/>
	<path class="st50" d="M413,120c-0.1-0.2-0.3-0.1-0.4-0.2c2-1.1,3.9-2.1,5.9-3.2c0.9-0.5,1.7-1.1,2.7-1.4c-1.5,1.3-3.3,2.1-5,3.1
		C415.2,119,414.2,119.7,413,120"/>
	<path class="st51" d="M130,227.9c1.1-0.7,2-1.6,2.9-2.6c0.7,0.2,0.7,0.7,0.4,1.2c-0.9,0.7-1.8,1.5-2.7,2.2
		C129.9,228.8,129.7,228.6,130,227.9"/>
	<path class="st52" d="M348.7,251.3c-0.1-0.3,0.3-0.7-0.2-0.9c0.6-2.4,1.1-4.9,1.1-7.4c0-0.7,0-1.5,0-2.3c0.6,0.1,0.4,0.5,0.4,0.8
		c-0.1,2.5-0.1,5-0.8,7.4C349,249.7,349.2,250.6,348.7,251.3"/>
	<path class="st53" d="M133.9,224.3c0.9-0.7,1.5-1.6,2.5-2.2c0.4-0.3,0.7-0.7,1.2-0.4c-0.8,1.3-2,2.3-3.1,3.4
		C133.8,225.3,133.8,224.8,133.9,224.3"/>
	<path class="st54" d="M169.2,175.6c-2.9-0.1-5.7,0.5-8.5,0.9C163.4,175.2,166.3,174.9,169.2,175.6"/>
	<path class="st55" d="M154.9,141.4c0.3-0.8,1.1-1.3,1.6-2c1.1-1.4,2.4-2.7,3.9-3.9c0.2-0.2,0.4-0.3,0.7-0.4c0.1,0,0.1,0,0.1,0.1
		c-0.1,0.1-0.1,0.3-0.2,0.3c-2.2,1.5-3.8,3.5-5.5,5.5c-0.1,0.1-0.3,0.2-0.5,0.4C154.9,141.5,154.9,141.5,154.9,141.4"/>
	<path class="st9" d="M369.5,145.8c-1.3,0-2.4-0.5-3.6-0.7c-0.5-0.3-1-0.2-1.6-0.3c-0.8,0.2-1.4-0.3-2.2-0.3c-0.2-0.2-0.9,0-0.8-0.6
		c0.5,0,1,0,1.4,0.1c0.6,0.3,1.3,0.2,2,0.3c1.8,0.3,3.7,0.7,5.5,1.2C370.1,146.1,369.8,145.9,369.5,145.8"/>
	<path class="st56" d="M169,178.2c-2.4,0.1-4.7,0.5-7,0.8C164.3,178,166.6,177.3,169,178.2"/>
	<path class="st57" d="M239.3,128.7c0.2-0.1,0.5,0.1,0.5-0.2c-0.1-0.3-0.1-0.6,0.3-0.7c0.3-0.1,0.6,0.2,0.8,0.4
		c0.2,0.3,0.5,0.5,0.9,0.6c0.1-0.5-0.3-0.9-0.3-1.3c0.2,0.2,0.6,0,0.8,0.2c0,0.7,0.5,1.3,0.7,1.9
		C241.8,129.1,240.4,129.3,239.3,128.7"/>
	<path class="st58" d="M341.8,225.4c-0.2-0.1-0.4-0.4-0.4,0.1c0,0.5,0,0.9,0,1.4c-0.6,0.3-0.6-0.2-0.6-0.5c0-0.7,0-1.4-0.1-2.1
		c0-0.3,0.1-0.5,0.4-0.6c0.3-0.1,0.4,0.1,0.6,0.2c0.3,0.3,0.5,0.5,0.8,0.8C342.7,225.3,342.3,225.4,341.8,225.4"/>
	<path class="st59" d="M369.5,145.8c0.2,0,0.5,0,0.7-0.2c2,0.3,3.9,1.1,5.8,1.8c0,0.2,0,0.3-0.2,0.2c-0.9,0.1-1.6-0.4-2.4-0.6
		C372.1,146.6,370.7,146.4,369.5,145.8"/>
	<path class="st60" d="M161.6,215.2c0.1,0.1,0,0.5,0.3,0.2c0.2-0.1,0.3-0.3,0.5-0.4c0,0.9-0.4,1.7-1.1,2.4c-0.4,0.4-1,0.7-1.4,1.1
		C160.4,217.4,160.9,216.2,161.6,215.2"/>
	<path class="st61" d="M347.9,228.7c0.4-0.2,0.1-0.5,0.2-0.8c0.2,0,0.3,0.1,0.4,0.2c0.6,1.5,1.2,3.1,1.4,4.7c-0.2,0.4,0,0.9-0.4,1.2
		C349,232.3,348.4,230.5,347.9,228.7"/>
	<path class="st62" d="M161.9,125.6c0-0.1,0-0.2-0.1-0.3c1.3-1.8,2.8-3.3,4.4-4.7c0,0,0.1,0.1,0.1,0.1
		C164.8,122.4,163.3,124,161.9,125.6"/>
	<path class="st63" d="M188.4,111.9c0.9,0.3,1.8,0.7,2.7,1c0.3,0.5,0,0.6-0.4,0.8c-1,0-1.7-0.6-2.5-1.2
		C188.1,112.2,188,112,188.4,111.9"/>
	<path class="st64" d="M354.1,139c0.3-0.4,0.8-0.4,1.2-0.4c1.3-0.2,2.4-1,3.7-1.1c0.2,0,0.5-0.1,0.7,0c-1.3,0.7-2.6,1.2-4,1.5
		C355.2,138.5,354.6,139.1,354.1,139"/>
	<path class="st26" d="M375.7,147.6c0.1-0.1,0.1-0.1,0.2-0.2c1.5,0.7,3,1.3,4.7,2.1c-0.9,0.2-1.3-0.3-1.9-0.5
		c-0.9-0.2-1.7-0.6-2.6-0.9C375.9,148.1,375.7,148,375.7,147.6"/>
	<path class="st65" d="M150.4,212c-0.2,0.7-0.7,0-1.1,0.2c-0.3,0.1-0.3-0.3-0.3-0.5c0-0.6-0.1-1.1,0.2-1.8c0.6,0.6,1,1.2,1.2,1.9
		C150.4,211.9,150.4,211.9,150.4,212"/>
	<path class="st66" d="M146.1,217.4c-0.5-0.3-0.3,0.2-0.4,0.4c-0.4-1.2-0.8-2.4-1.2-3.6c0.2-0.5,0.7,1.1,0.7-0.1
		c0.3-0.2,0.4,0,0.5,0.2C146.1,215.3,146.1,216.3,146.1,217.4"/>
	<path class="st67" d="M152.1,212.4l-0.2-0.2c-0.2-0.7-0.2-1.4,0.2-2c0.8-0.5,1-0.4,1.1,0.2C152.7,211,152.7,211.9,152.1,212.4"/>
	<path class="st68" d="M124.6,231.9c0.4-0.3,0.8-0.5,1.3-0.8c0.5-0.1,1-0.2,0.8,0.6c-0.4,0.5-1,0.6-1.5,1
		C124.4,232.7,124.3,232.5,124.6,231.9"/>
	<path class="st69" d="M188.4,111.9c-0.3,0.1-0.1,0.3-0.1,0.5c-1.3-0.5-2.5-1.1-3.6-1.9C186.1,110.7,187.1,111.6,188.4,111.9"/>
	<path class="st43" d="M137.6,221.7c-0.4,0.1-0.8,0.3-1.2,0.4c0.6-0.8,1-1.7,1.7-2.3c0.1,0.3,0.3,0.5,0.6,0.7
		C138.4,221,138.1,221.5,137.6,221.7"/>
	<path class="st70" d="M129.5,229.5c-0.3,0.4-0.8,0.7-1.2,1c-0.8,0.3-1,0.2-1-0.6c0.6-0.3,0.9-0.9,1.6-1
		C129.3,229,129.5,229.2,129.5,229.5"/>
	<path class="st71" d="M353.2,140.8c1.1-0.6,2.4-0.7,3.6-1.1c0.3,0.5,0.7-0.1,1.1,0.2c-1.5,0.4-2.9,0.8-4.4,1.2
		C353.3,141,353.2,141,353.2,140.8"/>
	<path class="st66" d="M127.3,229.9c0.1,0.6,0.5,0.6,1,0.6c-0.3,0.7-1.1,0.7-1.6,1.2c-0.1-0.5-0.4-0.6-0.8-0.6
		C126.3,230.7,126.8,230.3,127.3,229.9"/>
	<path class="st72" d="M341.8,225.4c0.2-0.2,0.8-0.1,0.7-0.7c0.3,0.5,1.1,0.7,1,1.4c-0.1,0.1-0.3-0.5-0.4,0c-0.1,0.4,0,0.8,0,1.2
		C342.7,226.7,342.3,226,341.8,225.4"/>
	<path class="st73" d="M336.1,167.7c0.3-0.2,0.2,0.2,0.4,0.2c0.7,0.4,0.4,1.2,0.6,1.8c0,0.1,0,0.2,0,0.3c-0.1,0.3,0.1,0.8-0.2,1.1
		c-0.1,0-0.3,0-0.4,0C336.5,169.9,335.8,168.9,336.1,167.7"/>
	<path class="st74" d="M295.8,74.5c0.4,0.6-0.3,0.7-0.5,0.9c-0.4,0.3-0.5-0.2-0.7-0.4c-0.2-0.2-0.2-0.4-0.4-0.6
		c-0.5-0.7,0.1-0.4,0.4-0.4C294.9,74.2,295.4,74.4,295.8,74.5"/>
	<path class="st75" d="M288.9,136.7c1.2,0.1,2.4,0.4,3.8,0.9c-1.4,0.1-2.5-0.1-3.6-0.5c0.4-0.1,0.4-0.1,0.2-0.2
		C289.2,136.8,289.1,136.8,288.9,136.7"/>
	<path class="st76" d="M371.8,161.3c0.1-0.1,0.2-0.1,0.2-0.2c0.8,0.5,1.8,0.7,2.5,1.4c0.1,0.1,0.5,0.1,0.3,0.4
		c-0.2,0.3-0.4,0.1-0.6-0.1C373.4,162.4,372.6,161.9,371.8,161.3"/>
	<path class="st77" d="M119,235.3l0-0.6c0.5-0.2,1.1-0.4,1.6-0.6c0.5-0.1,0.7,0.1,0.6,0.6C120.5,234.7,119.9,235.4,119,235.3"/>
	<path class="st53" d="M141,217.8c-0.3,0.4-0.6,0.7-0.9,1.1c-0.6,0-0.8-0.2-0.6-0.8c0.3-0.3,0.6-0.6,0.9-1c0.1-0.2,0.3-0.3,0.5-0.2
		C141.2,217.2,141.1,217.5,141,217.8"/>
	<path class="st30" d="M315,147.4c-1,0.2-2.1-0.2-3.1,0.2c-0.9,0-1.7-0.2-2.5-0.3c0.7-0.4,1.6-0.2,2.3-0.4c1-0.1,1.9,0.1,2.8,0.2
		C314.8,147,315,147.1,315,147.4"/>
	<path class="st78" d="M153.1,210.4c-0.2-0.7-0.7-0.4-1.1-0.2c0.3-0.5,0.6-1,0.9-1.5c0.2,0.4,0.6,0.4,1,0.3
		C153.7,209.5,153.4,209.9,153.1,210.4"/>
	<path class="st79" d="M141,217.8c0-0.4,0.1-0.9-0.6-0.6c0.4-0.6,0.8-1.2,1.2-1.8c-0.1,0.4,0,0.8,0.4,1L141,217.8z"/>
	<path class="st80" d="M133.9,224.3c0,0.4,0.1,0.7,0.6,0.8c-0.6,0.3-0.7,1-1.2,1.4c0.1-0.5-0.1-0.9-0.4-1.2
		C133.3,225.1,133.5,224.6,133.9,224.3"/>
	<path class="st81" d="M241,114.1c-0.1,0.1-0.2,0.1-0.2,0.2c-0.9-0.6-1.9-1.2-2.7-1.9c-0.1-0.1-0.1-0.2,0-0.3
		C239.1,112.6,240.2,113.2,241,114.1"/>
	<path class="st59" d="M361.3,144c0.2,0.3,0.7,0.2,0.8,0.6c-1.4-0.2-2.8-0.4-4.2-0.5c0.7,0,1.5-0.1,2.2,0.1c0.3,0.1,0.3-0.1,0.2-0.3
		C360.6,143.9,361,144,361.3,144"/>
	<path class="st43" d="M124.6,231.9c-0.3,0.6,0.2,0.7,0.6,0.8c-0.5,0.3-1.1,0.4-1.5,0.8c-0.3-0.2-0.7-0.2-0.8-0.6
		C123.5,232.5,124,232.2,124.6,231.9"/>
	<path class="st82" d="M370.8,204.9c0-0.1,0-0.2,0-0.3c1,0.5,1.8,1.3,2.4,2.2C372.5,206.1,371.4,205.8,370.8,204.9"/>
	<path class="st83" d="M190.8,113.6c0-0.3,0.4-0.4,0.4-0.8c0.4,0.2,0.7,0.4,1.1,0.6c-0.2,0.3-0.2,0.7-0.6,0.8
		C191.1,114.2,190.8,114.1,190.8,113.6"/>
	<path class="st84" d="M167.5,173.4c1.1-0.8,2.2-0.5,3.4-0.3C169.8,173.4,168.7,173.2,167.5,173.4"/>
	<path class="st85" d="M166.3,206.8c-0.1-0.3,0.2-0.6-0.1-0.9c0.4-0.7,0.7-1.5,1.5-2.4C167.4,204.8,166.7,205.8,166.3,206.8"/>
	<path class="st86" d="M359.7,245.6c0.4-0.2,0.1-0.5,0.2-0.8c0.7,0.9,0.9,2,1.6,2.9C360.7,247.1,360.2,246.4,359.7,245.6"/>
	<path class="st87" d="M139.5,218.2c0,0.4,0.2,0.6,0.6,0.8c-0.5,0.3-0.6,1-1.2,1.3c-0.2-0.2-0.3-0.6-0.5-0.8
		C138.8,219,139.1,218.6,139.5,218.2"/>
	<path class="st26" d="M161.1,135.2c0.6-0.9,1.7-1.1,2.6-1.7c-0.7,0.7-1.5,1.4-2.5,1.8C161.2,135.3,161.2,135.3,161.1,135.2"/>
	<path class="st84" d="M224.1,102.3c-0.1,0-0.2,0-0.3,0c-0.9-0.3-1.6-1-2.4-1.6c-0.1-0.1-0.1-0.2,0-0.3
		C222.3,101,223.3,101.5,224.1,102.3"/>
	<path class="st43" d="M129.5,229.5c-0.3-0.1-0.5-0.4-0.6-0.6c0.4-0.3,0.7-0.6,1.1-1c-0.1,0.5,0.2,0.7,0.6,0.8
		C130.2,229,129.9,229.2,129.5,229.5"/>
	<path class="st35" d="M122.9,232.8c0.5-0.1,0.7,0.2,0.8,0.6c-0.4,0.2-0.8,0.4-1.2,0.6c-0.3-0.1-0.7-0.3-0.4-0.8
		C122.4,233.1,122.7,233,122.9,232.8"/>
	<path class="st82" d="M150.7,149L150.7,149l-0.2,0c0.3-0.9,0.7-1.8,1.2-2.6c0.1-0.1,0.2-0.1,0.3,0
		C151.5,147.3,151.4,148.3,150.7,149"/>
	<path class="st88" d="M374.4,131.9c0,0.2,0,0.5,0,0.7c0,0.2,0.1,0.5-0.3,0.5c-0.3,0-0.7,0.2-0.7-0.2c-0.1-0.5-0.4-0.3-0.6-0.4
		C373.2,132.1,373.8,132.2,374.4,131.9"/>
	<path class="st89" d="M216.2,89.9c0.6,0.5,1.6,0.5,2.1,1.2c-1,0.1-1.6-0.6-2.3-1c-0.2-0.1,0-0.1,0.1-0.2
		C216,90,216.1,89.9,216.2,89.9"/>
	<path class="st41" d="M122.1,233.3c0,0.3,0.3,0.5,0.4,0.8c-0.5,0.1-0.9,0.3-1.3,0.6c-0.1-0.3-0.2-0.6-0.6-0.6
		C121.1,233.8,121.6,233.5,122.1,233.3"/>
	<path class="st40" d="M407.4,102.9c0.6-0.7,1.5-1,2.5-1.2C409.2,102.5,408.4,102.8,407.4,102.9L407.4,102.9z"/>
	<path class="st90" d="M166.2,189c-0.4,0.5-1,0.9-1.6,1.1c-0.3-0.5,0.4-0.5,0.3-0.9C165.2,188.6,165.7,189,166.2,189"/>
	<path class="st91" d="M138.5,219.4c0.5,0.1,0.7,0.3,0.5,0.8l-0.3,0.4c-0.6,0.1-0.9-0.1-0.6-0.7
		C138.2,219.6,138.3,219.5,138.5,219.4"/>
	<path class="st92" d="M170.5,151.8c0.1,0.1,0.1,0.1,0.2,0.2c-0.6,0.5-1.4,0.8-2.2,0.9C169.2,152.5,169.8,152,170.5,151.8"/>
	<path class="st9" d="M321.8,140.2c0.3-0.5,0.8-0.1,1.2-0.1c0.7,0,1.4,0.2,2.1,0.4h-1.7C322.9,140.4,322.4,140.3,321.8,140.2"/>
	<path class="st93" d="M153.8,143.5c-0.2,0.7-0.7,1.2-1.2,1.8c-0.1,0-0.2,0-0.1-0.1c0.3-0.7,0.7-1.4,1.3-2
		C153.8,143.3,153.9,143.4,153.8,143.5"/>
	<path class="st94" d="M153.8,143.5l-0.1-0.3c0.1-0.8,0.6-1.3,1.2-1.8c0,0,0.1,0.1,0.1,0.1C154.8,142.3,154.2,142.9,153.8,143.5"/>
	<path class="st37" d="M238.1,112c0,0.1,0,0.2,0,0.3c-0.8-0.2-1.4-0.6-1.9-1.3c0.1,0,0.2,0,0.3,0C237.1,111.2,237.6,111.6,238.1,112
		"/>
	<path class="st95" d="M354.1,151.8c-0.4-0.3-0.7-0.7-0.8-1.2c0-0.2,0-0.4,0.2-0.5c0.1,0,0.2,0.2,0.3,0.3"/>
	<path class="st53" d="M339.4,208.8c-0.1,0.3,0.1,0.7-0.2,1c-0.1-1-0.2-2-0.3-3c0.1,0,0.1,0,0.2,0
		C340,207.4,339.8,208.1,339.4,208.8"/>
	<path class="st61" d="M350.3,235.3c-0.5,0.4,0,1-0.2,1.4c-0.2-0.5-0.4-0.9-0.3-1.5c0.2-0.4-0.1-0.8,0.2-1.2
		C350.5,234.3,350.7,234.7,350.3,235.3"/>
	<path class="st96" d="M221.4,100.4c0,0.1,0,0.2,0,0.3c-0.6-0.4-1.2-0.8-1.9-1.2c0-0.1,0.1-0.1,0.1-0.2
		C220.2,99.6,220.9,99.9,221.4,100.4"/>
	<path class="st97" d="M158.1,220.1c0.1,0.5-0.4,0.9,0,1.4c0.1,0.3,0,0.6-0.2,0.9C157.7,221.6,157.5,220.8,158.1,220.1"/>
	<path class="st84" d="M164.9,205.4c0-0.8,0.7-1,1.2-1.4C165.7,204.5,165.7,205.2,164.9,205.4C165,205.5,164.9,205.5,164.9,205.4
		L164.9,205.4z"/>
	<path class="st18" d="M146.3,197.9c0.3,1.1,0.3,2.1,0,3.2C146.3,200,146.3,199,146.3,197.9"/>
	<path class="st98" d="M376.4,133.7c0-0.4-0.1-0.7,0.5-0.8c0.4,0,0.7,0,0.6,0.5C377.1,133.4,376.7,133.5,376.4,133.7"/>
	<path class="st20" d="M148.8,206c0,0.5-0.3,0.7-0.7,0.8c0-0.3,0-0.5-0.1-0.8c0.1,0,0.1,0,0.2,0C148.3,206,148.6,206,148.8,206"/>
	<path class="st9" d="M350,234c-0.2,0.4,0.2,0.9-0.2,1.2c-0.1-0.4,0-0.8-0.2-1.2c0.2-0.4-0.2-0.8,0.2-1.2
		C350.1,233.2,350.1,233.6,350,234"/>
	<path class="st99" d="M284,138.3c-0.6,0-1.1,0-1.4-0.6C283,137.9,283.7,137.6,284,138.3"/>
	<path class="st59" d="M364.7,144.4c-0.7-0.1-1.4,0.3-2-0.3C363.5,144,364.1,144.2,364.7,144.4"/>
	<path class="st100" d="M151.9,146.4c-0.1,0-0.2,0-0.3,0c0.3-0.4,0.3-1,0.8-1.2c0,0,0.1,0.1,0.1,0.1
		C152.5,145.7,152.4,146.2,151.9,146.4"/>
	<path class="st101" d="M389.6,108.7c-0.3,0.6-1,0.5-1.5,0.6C388.6,108.8,389,108.5,389.6,108.7"/>
	<path class="st9" d="M311.7,147c-0.7,0.4-1.6,0-2.3,0.2l-0.1,0l-0.1,0c0.2-0.3,0.5-0.2,0.7-0.2C310.5,146.6,311.1,146.6,311.7,147"
		/>
	<path class="st102" d="M339.2,142.9c-0.2,0.6-0.8,0.3-1.3,0.4C338.2,142.5,338.8,142.9,339.2,142.9"/>
	<path class="st59" d="M364.3,144.8c0.5,0.1,1.2-0.3,1.6,0.3C365.3,145.2,364.8,145,364.3,144.8"/>
	<path class="st103" d="M326.2,127.5c-0.2,0.1-0.5,0-0.7,0.2c-2.8-1.2-5.8-2.2-8.5-3.7c-3.1-1.7-6.4-3.1-9.4-5
		c-2.7-1.7-5.6-3.1-8.1-4.9c-2.5-1.8-5.2-3.1-7.6-4.9c-2.2-1.7-4.7-3-6.9-4.6c-2.4-1.8-5.1-3.2-7.5-5c-2.4-1.7-5-3.1-7.4-4.7
		c-2.6-1.8-5.6-3.2-8.3-5c-2.9-1.9-6.2-3.2-9.2-4.9c-2.9-1.7-6.1-2.8-9.1-4.1c-2.6-1.1-5.2-2.1-7.9-2.8c0.2-0.6,0.7-0.4,1.1-0.4
		c3.9,1,7.5,2.6,11.2,4.1c4.7,1.9,9.1,4.3,13.4,6.8c3,1.7,6,3.3,8.8,5.2c2.3,1.6,4.9,2.9,7.2,4.6c2.8,2.2,6,3.8,8.8,5.9
		c1.2,1,2.6,1.7,3.9,2.6c3.8,2.7,7.8,5.1,11.7,7.6c1.7,1.1,3.6,2,5.4,3.1c3.1,1.9,6.3,3.4,9.5,5.1c2.8,1.5,5.8,2.7,8.7,4
		C325.7,127,326.1,127.1,326.2,127.5"/>
	<path class="st104" d="M247.3,96.2c-1-0.3-2-0.9-2.8-1.5c-1.5-1.2-3.3-1.9-5-2.8c-2-1.1-4.1-2-6.2-3c-3.3-1.5-6.8-2.8-10.3-3.8
		c-0.6-0.2-1.2-0.6-1.8-1c0.7,0,1.5,0.1,2.1,0.4c1.4,0.8,3,1.1,4.5,1.7c2.6,0.9,5.2,1.8,7.5,3.1c3.1,1.7,6.3,3,9.2,4.9
		c1,0.7,2.1,1.1,2.9,1.9C247.5,96.2,247.5,96.2,247.3,96.2"/>
	<path class="st105" d="M262.2,100.5c-0.8-0.2-1.5-0.7-2-1.2c-1.3-1.3-3-2.1-4.6-3c-2.1-1.2-4.2-2.6-6.4-3.6
		c-1.9-0.9-3.8-1.7-5.6-2.7c-1.7-0.9-3.4-1.8-5.1-2.8c1.7,0.8,3.5,1.3,5.1,2.3c1.4,0.9,2.9,1.5,4.5,2.1c3,1.3,5.7,3.1,8.5,4.7
		c1.9,1.1,3.6,2.3,5.3,3.6c0.2,0.1,0.4,0.2,0.4,0.5c0,0,0,0.1,0,0.1L262.2,100.5z"/>
	<path class="st106" d="M236.8,77.9c-0.4,0.1-0.8-0.3-1.2,0.2c-3.5-1-7.1-1.8-10.7-2.5c-0.6-0.1-1.1,0.2-1.7,0.1
		c0.7-0.7,1.7-0.1,2.6-0.5c3.5,0.3,6.9,1.3,10.2,2.2C236.3,77.4,236.9,77.3,236.8,77.9"/>
	<path class="st37" d="M257.9,102.7c-0.2,0-0.4,0-0.6,0c-1.9-1.2-3.9-2.4-5.7-3.8c-1.1-0.9-2.4-1.5-3.6-2.2
		c-0.3-0.2-0.6-0.3-0.7-0.5c0.1,0,0.1-0.1,0.2-0.1c1.3,0.4,2.5,1.2,3.5,2C253.3,99.7,255.7,101.1,257.9,102.7"/>
	<path class="st107" d="M209.1,81.3c3.9,0.4,7.7,1.2,11.4,2.5C216.7,83.1,212.9,82.1,209.1,81.3"/>
	<path class="st108" d="M353.5,137.7c-1.6,1-3.5,0.6-5.3,0.7c-1.5,0.1-3.1,0.3-4.7-0.1c0.3,0,0.5-0.1,0.8-0.1c2.7,0.2,5.3-0.2,8-0.5
		C352.7,137.7,353.1,137.7,353.5,137.7"/>
	<path class="st109" d="M262.3,100.4c1.2,0.5,2.1,1.4,3.2,2.1c0.4,0.3,0.9,0.6,1.3,0.9c0.3,0.2,0.6,0.3,0.5,0.7c0,0.1,0,0.1-0.1,0.1
		c-0.7-0.3-1.1-0.9-1.7-1.4c-1.1-0.8-2.3-1.5-3.2-2.4C262.3,100.5,262.3,100.5,262.3,100.4"/>
	<path class="st110" d="M204.6,80c0.2-0.4,0.5-0.6,1-0.6C205.5,80,205,79.9,204.6,80"/>
	<path class="st3" d="M236.8,77.9c-2-0.7-4.1-1.1-6.2-1.7c-1.6-0.4-3.3-0.4-4.8-1.1c1.1,0.2,1.9-0.5,3-0.6
		c11.8-1.4,23.6-1.8,35.4-1.5c4.2,0.1,8.3,0.6,12.4,1.2c0.8,0.1,1.7,0,2.4,0.5c3.3,1.6,6.7,3,9.9,4.8c1.7,0.9,3.4,2,5.2,2.8
		c0.6,0.3,1.2,0.6,1.6,1.2c3.2,1.9,6.5,3.7,9.5,5.8c2.4,1.7,5,3.1,7.3,4.9c2.1,1.6,4.4,2.9,6.4,4.5c2.1,1.8,4.5,3.2,6.6,5
		c2,1.8,4.3,3.2,6.4,4.9c2.2,1.9,4.8,3.2,7.1,4.9c2.6,2,5.6,3.3,8.4,4.9c3.6,2,7.5,3.3,11.5,4.3c1.3,0.3,2.7,0.7,4.1,0.8
		c0.8,0,1.5,0.4,2.4,0.5c2.3,0.2,4.5,0.2,6.8-0.1c0.2,0,0.5,0,0.7,0c0,0,0.1,0.1,0.3,0.2c-7.4,3.6-14.9,3.5-22.5,1.1
		c-2.6-0.3-4.7-1.9-7-3c-1.7-0.8-3.4-1.6-4.9-2.7c-2.8-2.1-5.8-3.7-8.4-6c-0.9-0.9-2.1-1.5-3.1-2.3c-2-1.3-3.6-3-5.6-4.4
		c-0.3-0.3-0.7-0.5-1-0.8c0.3,0.3,0.7,0.5,1,0.8c1.9,1.4,3.6,3.1,5.6,4.4c3.1,2.4,6.2,4.7,9.4,7c2.8,2,5.9,3.6,9,5.2
		c1.2,0.6,2.4,1.1,3.6,1.7c0.2,0.1,0.4,0.2,0.6,0.4c1.9,0.7,3.9,1.3,6,1.7c3,0.5,6,0.7,9.1,0.3c3.3-0.5,6.2-1.6,9-3.3
		c2.1-1.3,4.3-2.6,5.7-4.7c0.2-0.3,0.3-0.5,0.5-1.1c0.3,0.9-0.1,1.4-0.3,1.9c-1.2,2.9-2.6,5.6-5.2,7.8c-2.3,1.9-5,2.8-7.9,3.3
		c-3.7,0.6-7.4,0-11-0.8c-0.5-0.1-1.1,0-1.6-0.3c-2.8-0.3-5.4-1.4-8-2.4c-1.5-0.6-2.9-1.1-4.4-1.7c-1-0.5-2.1-0.8-3.1-1.3
		c-2.3-1.2-4.7-2.4-7-3.6c-0.1-0.1-0.3-0.2-0.3-0.2c1.7,1.1,3.7,1.8,5.5,2.9c1.4,0.9,3,1.5,4.6,2c1.6,0.9,3.5,1.3,5.2,2.1
		c1.5,0.7,3.1,1.2,4.7,1.6c0.5,0.1,1.1,0.3,1.5,0.7c1.6,0.4,3.2,0.8,4.9,1c3.5,0.6,7,1,10.5,0.3c0.8-0.2,1.5-0.2,2.5-0.4
		c-2,1.3-4.1,1.5-6.1,1.8c-0.3,0.1-0.8-0.1-0.9,0.4c-1.9-0.1-3.8,0.3-5.8,0.1c-2.2-0.2-4.4-0.8-6.6-1.3c-3.7-0.8-7.5-1.7-11.1-2.6
		c-1.8-0.5-3.6-1-5.3-1.7c-2.2-0.9-4.5-1.6-6.7-2.5c-2.5-1-4.7-2.5-7-3.7c-1.6-0.8-3.2-1.7-4.7-2.7c-2.5-1.8-5.3-3.2-7.8-5
		c-2.2-1.7-4.7-3.1-6.8-4.9c-1.1-0.9-2.3-1.9-3.6-2.6c-1.1-0.5-2.1-1.3-3-2c-2-1.7-4.2-3-6.2-4.6c-1.9-1.5-3.8-2.9-5.8-4.3
		c-0.7-0.5-1.5-0.8-1.9-1.5c-0.6-0.4-1.2-0.8-1.7-1.2c-1.4-0.9-2.7-1.8-3.5-2.3c0.8,0.4,2,1.4,3.3,2.2c0.6,0.5,1.2,0.9,1.9,1.3
		c0.4,0.5,0.9,0.8,1.4,1.2c1.8,1.3,3.6,2.5,5.3,3.9c1.7,1.4,3.7,2.5,5.4,3.9c1.5,1.2,3.2,2.2,4.6,3.6c2.8,2.3,5.9,4.4,8.9,6.5
		c2.4,1.8,5,3.2,7.4,5c2.6,1.9,5.4,3.2,8.1,4.9c3.3,2,6.9,3.1,10.4,4.6c2.2,0.9,4.4,1.6,6.7,2.2c3.5,1,7,1.9,10.5,2.6
		c1.3,0.3,2.5,0.8,3.8,1c1.7,0.3,3.3,0.4,5,0.6c0.3,0,0.7,0,1.1,0.3c-4.1-0.1-8.1,0.2-12-0.5c-1.4-0.2-2.9-0.4-4.2-0.8
		c-1.3-0.4-2.6-0.8-4-1.1c-3.9-1.1-7.7-2.4-11.5-3.8c-0.8-0.3-1.5-0.7-2.3-1c-2-0.9-4.1-1.8-6.1-2.6c-2-0.8-3.8-2-5.8-3
		c-1.8-0.8-3.7-1.7-5.4-2.8c-2.8-1.8-5.9-3.2-8.6-5c-2.4-1.7-5-3-7.4-4.8c-2.2-1.7-4.8-3-7-4.7c-2.5-1.9-5.3-3.4-7.9-5.3
		c-2.2-1.7-4.8-2.9-7-4.5c-2.7-1.9-5.6-3.3-8.3-5.1c-2.8-1.8-5.9-3.1-8.8-4.8c-2.3-1.3-4.7-2.3-7.2-3.3c-1.4-0.6-2.9-1-4.2-1.6
		C240.7,79,238.7,78.7,236.8,77.9"/>
	<path class="st3" d="M336.9,171.1c0.1-0.4-0.6-0.8,0-1.1c0.7-0.3,1.2,0.3,1.8,0.5c1.1,0.4,2.2,0.7,3,1.6c0.2,0.7,1,0.8,1.5,1.1
		c1.9,1.1,3.6,2.3,5.2,3.7c2.5,2.3,4.9,4.7,6.8,7.5c0.1,0.1,0.2,0.2,0.2,0.3c0.2,2.7,0.4,5.4,0.7,8.1c-0.5,0-0.7-0.5-1.3-0.4
		c1.4,1,1.3,2.4,1.3,3.8c0,1.2,0,2.3,0,3.5c-0.6-0.3-0.5-1.2-1.3-1.7c0.3,1.3,1.4,2.3,1.3,3.6c-0.1,1.3,0,2.5,0,3.8
		c-0.1,0-0.2,0-0.3,0c-0.3-0.6-0.6-1.2-0.9-1.8c-0.7-0.4-0.5-1.2-1-1.8c0.4,0.7,0.6,1.4,0.8,2.2c0.3,0.9,0.6,1.7,0.9,2.6
		c0.7,1.9,0.3,3.7-0.1,5.6c-0.1,0.1-0.2,0.1-0.3,0c-1.2-2.9-2.6-5.7-4.2-8.4c-1.7-2.8-3.9-5.3-6.3-7.6c-0.9-0.8-2-1.3-2.9-2
		c-0.7-0.4-1.4-0.8-2.1-1c-0.4-0.2-0.8-0.4-1.1-0.7c-0.3-1.9-0.3-3.9-0.4-5.8c0-0.2-0.2-0.4,0.1-0.5c0.3-0.1,0.3,0.2,0.5,0.3
		c2,2,4.5,3.5,6.2,5.8c0.1,0.1,0.2,0.3,0.5,0.2c-0.4-1.1-1.3-1.8-2.1-2.6c-1.6-1.4-3.1-2.8-4.8-4.2c-0.4-0.3-0.6-0.6-0.5-1.1
		c0.1-2-0.3-4-0.2-6c0-0.6-0.2-1.4-0.3-2.1c-0.1-0.7-0.2-1.4-0.1-2.1c4.6,1.5,7.4,5,10.1,8.8c-0.3-1.2-0.8-2-1.4-2.7
		c-1.9-2.4-3.8-4.7-6.8-5.9c-0.1,0-0.2-0.1-0.3-0.1c-1.8-0.1-2-1.3-2-2.6C337,171.6,336.9,171.4,336.9,171.1"/>
	<path class="st3" d="M341.1,167.7c-1.1-0.8-2.4-1.4-3.8-1.6c-1-0.2-1.2-0.9-1.2-1.8c0-0.4,0.2-0.8-0.2-1.1c0,0,0-0.1,0-0.1
		c-0.2-0.5-0.4-1.2-0.1-1.5c0.3-0.3,1-0.1,1.5,0.1c0.8,0.3,1.6,0.4,2.5,0.4c2.6,1.4,5.5,2.4,7.6,4.6c0.7,0.7,1.1,1.6,1.7,2.3
		c0.1,0.1,0.2,0.2,0.2,0.3c0-0.1-0.2-0.2-0.3-0.3c-1.4-2.8-3.9-4.4-6.7-5.7c-0.9-0.4-1.6-1.1-2.6-1.2c-1-0.6-2.2-0.8-3.3-1
		c-0.6-0.1-1-0.3-1-1c0-0.5-0.2-1-0.4-1.4c-0.2-0.6-0.2-1.2,0.2-1.4c0.4-0.2,1,0.1,1.5,0.4c1.5,0.7,3.2,1.2,4.7,2.1
		c-0.5-1.1-1.7-1.2-2.6-1.8c-1.1-0.7-2.2-1-3.5-1.2c-0.3-0.1-0.4-0.3-0.5-0.6c-0.7-2.2-1.2-4.5-2.1-6.7c0-0.1-0.1-0.1-0.1-0.1
		c-0.1-0.5,0.3-0.4,0.5-0.4c3.2,0.1,6.4,0.2,9.5,0.7c2.5,0.4,4.9,0.9,7.3,1.7c0.4,0.1,0.8,0.3,1.2,0.5c0.2,0.8,0,1.6,0.5,2.3
		c0.2,0.3,0.2,0.7,0.2,1.1c0,0.8,0.4,1.5,0.1,2.3c-0.2,0.6,0.3,1.1,0.2,1.7c-1-0.5-1.3-1.6-2.4-2.2c0.1,0.9,0.7,1.3,1.2,1.7
		c1.3,1.3,1.8,2.9,1.9,4.6c0.1,1.7,0.4,3.4,0.6,5.2c-0.9-0.8-0.9-2-1.8-2.7c-0.8-1.2-1.7-2.3-2.4-3.7c-0.3-0.3-0.5-0.7-0.8-1
		c0.3,0.3,0.4,0.7,0.7,1c0.4,1,1.1,1.8,1.7,2.7c0.3,0.4,0.5,0.9,0.7,1.3c0.7,1.7,1.9,3.2,2.1,5c0.3,2.1,0.5,4.2,0.7,6.3
		c0.2,1.4,0.3,2.7,0.5,4.3c-1.1-1.1-1.8-2.3-2.6-3.5c-1.4-2-3.1-3.7-4.7-5.5C345.7,170.5,343.5,169,341.1,167.7"/>
	<path class="st3" d="M355.4,212.2L355.4,212.2c0.2,4.9-0.6,9.7-1.2,14.6c-0.7-2-1.3-4-2-6c-0.3-1.1-0.8-2.1-1.3-3.2
		c-1.3-3.1-3-6-5.6-8.3c-1.8-1.6-3.6-3.2-5.7-4.4c-0.3-0.2-0.4-0.4-0.5-0.7c-0.1-1.3-0.2-2.6-0.3-4c-0.1-0.6,0-0.7,0.7-0.4
		c2.7,1.4,5,3.2,7.2,5.3c0.2,0.2,0.3,0.5,0.7,0.4c-0.1-0.6-0.6-0.9-1-1.3c-2.1-2-4.2-3.9-7-5c-0.4-0.2-0.7-0.5-0.7-1.1
		c0-1.6-0.1-3.2-0.1-4.8c0.1-0.6,0.4-0.4,0.7-0.3c0.7,0.3,1.4,0.6,2.1,1c1.1,0.6,2.3,1.2,3.1,2c1.3,1.3,2.7,2.4,3.8,3.9
		c1.1,1.4,2,2.9,3.1,4.3c1,1.7,1.8,3.4,2.8,5.1C354.6,210.3,354.8,211.4,355.4,212.2"/>
	<path class="st3" d="M339.4,208.8c0-0.7,0.1-1.4-0.2-2V205c1.7,0.9,2.8,2.2,4.1,3.2c2.6,2,4.6,4.6,6.1,7.4c1.2,2.3,2.2,4.8,2.9,7.3
		c0.4,1.4,0.7,2.9,1.3,4.2c0.5,1.2,0.1,2.2-0.2,3.3c-0.5,1.8-1,3.6-1.2,5.7c-0.4-1.3-0.7-2.3-0.9-3.3c-0.6-0.5-0.7-1.3-0.9-2
		c-0.4-1-0.7-2-1.3-3c-0.2-0.4,0-0.8-0.3-1.1c-1.7-3.6-4-6.9-6.6-10c-0.5-0.6-1-1.3-1.7-1.9c-0.5-0.4-0.3-1-0.4-1.5
		c-0.3-0.7-0.1-1.5-0.2-2.3c0-0.5,0.3-0.1,0.4-0.1c1.9,1.5,3.5,3.1,4.9,5c1.1,1.5,2.2,2.9,2.8,4.1c-1.5-2.8-3.5-5.9-6.5-8.3
		c-0.6-0.5-1.1-1-1.5-1.5C339.5,209.8,339.6,209.3,339.4,208.8"/>
	<path class="st111" d="M311.7,147c-0.6,0-1.2,0-1.8-0.1c-1.1-0.4-2.2-0.4-3.3-0.5c-2.5-0.3-4.9-0.7-7.4-1.1
		c-2.2-0.4-4.3-0.9-6.5-1.3c-1.3-0.4-2.7-0.6-4.1-1.1c-1.6-0.6-3.3-1-5-1.4c-2.2-0.6-4.4-1.3-6.6-2c-4-1.3-7.9-2.8-11.8-4.1
		c-0.2-0.1-0.4-0.1-0.6-0.1c0.5-0.5,0.9-0.2,1.4,0c1.9,0.5,3.8,1,5.7,1.6c4.5,1.3,9.1,2.6,13.8,3.5c3.4,0.6,6.7,1.5,10.1,2.2
		c0.3,0.1,0.7,0.1,1,0.1c0.5,0.3,1.1,0.3,1.7,0.6c2.7,0.5,5.4,1,8.2,1.4c2.5,0.4,5,0.7,7.6,0.9c5,0.5,10,0.7,15,0.3
		c1.7-0.1,2.3,0.2,2.7,1.7c0.1,0.4-0.2,0.5-0.4,0.5c-3.2-0.1-6.5,0.2-9.7-0.4c-1-0.2-2.1-0.1-3.2-0.1c-1.1-0.1-2.2-0.1-3.3-0.2
		C313.9,147.3,312.8,147.2,311.7,147"/>
	<path class="st15" d="M336.9,170c-0.4-0.6,0.1-1.4-0.4-2.1c-0.1-1.7-0.1-1.8,1.5-0.9c0.9,0.5,1.9,0.6,2.7,1.3
		c2.7,1.3,4.9,3.2,7,5.3c2.6,2.5,4.6,5.5,7,8.3c0.2,0.3,0.3,0.7,0.3,1.1c-3.5-4.6-7.8-8.3-13-11.1c-1.5-0.3-2.6-1.3-4.1-1.7
		C337.5,170.1,337.2,169.9,336.9,170"/>
	<path class="st17" d="M348.9,150.2c-1.5-0.4-3-0.8-4.5-1c-1.8-0.3-3.7-0.6-5.6-0.8c-2-0.2-4-0.2-6-0.3c-0.3,0-0.7,0.1-0.7-0.4
		c-0.1-0.6-0.6-1.2-0.3-1.8c0.1-0.2,0.4-0.1,0.7-0.1c3.4,0.3,6.8,0.7,10,1.8C344.6,148.5,346.9,149,348.9,150.2"/>
	<path class="st112" d="M350,234c-0.3-0.3-0.2-0.8-0.3-1.1c-0.5-1.7-0.8-3.4-1.6-5l-1-2.6c-0.1-0.2-0.3-0.5,0.1-0.5
		c0.4,0.8,0.9,1.7,1.3,2.5c0.8,0.6,1,1.6,1.3,2.4c0.5,1.2,1,2.4,1.1,3.6c0,0.2,0.1,0.5,0.1,0.7c0.4,0.6,0.2,1.2,0.3,1.8
		c0.2,1.2,0.3,2.5,0.2,3.7c-0.4,0.1-0.4-0.2-0.6-0.4c0.1-1.4-0.6-2.6-0.7-4C350.4,234.8,350.1,234.4,350,234"/>
	<path class="st113" d="M298.3,106.9c-1.7-1-3.1-2.2-4.6-3.4c-1.8-1.4-3.7-2.7-5.5-4.1c-2-1.6-4.1-3-6.3-4.5
		c-0.2-0.1-0.5-0.3-0.4-0.6c0,0,0.1-0.1,0.1-0.1c1,0.7,2.1,1.4,3.1,2.2c0.8,0.6,1.7,1.1,2.4,1.7c2.5,2,5.2,3.7,7.7,5.7
		c1.2,1,2.6,1.8,3.7,2.9C298.4,106.7,298.3,106.8,298.3,106.9"/>
	<path class="st114" d="M342.2,143.9c1.6-0.2,3.3-0.4,4.9-0.7c0.7-0.1,1.4-0.3,2.2-0.5c0.2-0.1,0.4,0,0.4,0.2c0,0.2,0.1,0.5-0.3,0.5
		C347.1,143.5,344.7,144.1,342.2,143.9"/>
	<path class="st81" d="M350.9,233.3c-0.8-1.5-1-3.2-1.8-4.7c-0.2-0.4-0.4-0.9-0.6-1.3c0.3-0.1,0.1-0.4,0.2-0.5c1.1,1.9,2,4,2.5,6.1
		C351,232.9,351,233.2,350.9,233.3"/>
	<path class="st115" d="M336.9,170c1.2-0.3,2.2,0.5,3.2,0.9c0.6,0.2,1.4,0.4,1.8,1c-0.1,0.1-0.2,0.2-0.3,0.3
		C340.1,171.3,338.5,170.5,336.9,170L336.9,170z"/>
	<path class="st116" d="M349.3,161.9c0.7,1.3,1.8,2.3,2.3,3.7c0,0.1,0,0.2-0.1,0.3c-1-1.3-1.9-2.5-2.5-4
		C349.1,161.8,349.2,161.8,349.3,161.9"/>
	<path class="st117" d="M266,135.3c-0.5,0.1-0.9-0.5-1.4,0c-1-0.2-1.9-0.6-2.8-1.1C263.3,134.3,264.7,134.6,266,135.3"/>
	<path class="st118" d="M341.3,194.3c-0.6-0.3-1.2-0.6-1.8-0.9c-0.3-0.1-0.6-0.5-1,0c-0.3-0.3,0-0.5,0-0.8c1.1,0.6,2.3,0.8,3.3,1.6
		C341.7,194.3,341.5,194.2,341.3,194.3"/>
	<path class="st86" d="M354.7,204.1c-0.6-0.8-0.9-1.7-1-2.6c0.1,0,0.2-0.1,0.3-0.1c0.3,0.8,0.6,1.5,0.9,2.3
		C354.7,203.8,354.7,203.9,354.7,204.1"/>
	<path class="st119" d="M353.2,140.8c0.1,0.1,0.2,0.2,0.3,0.3c-0.5,0.1-1,0.5-1.6,0.3C352.1,140.7,352.7,140.9,353.2,140.8"/>
	<path class="st120" d="M298.3,143.2c-0.7,0.1-1.2-0.1-1.7-0.6C297.2,142.8,297.9,142.6,298.3,143.2"/>
	<path class="st81" d="M351.4,235.9c-0.1-0.6-0.2-1.2-0.3-1.8C351.6,234.6,351.4,235.2,351.4,235.9"/>
	<path class="st121" d="M351,239.2c0.2,0.1,0.4,0.3,0.6,0.4c0,0.2,0.1,0.6-0.2,0.5C350.9,240,351,239.6,351,239.2"/>
	<path class="st3" d="M295.1,78.1c0.8,0.2,1.4,0.7,2.3,0.6c0.5,0.5,1.3,0,1.8,0.4c0.5,0.3,0.6,0.9,1.3,1.2c3.2,1.2,6.5,2.4,9.4,4.1
		c2.8,1.6,5.7,2.9,8.3,4.7c2.3,1.6,4.9,3,7.2,4.7c2.3,1.7,4.8,3.3,7.1,5c4,3,7.7,6.3,11.1,9.8c1.7,1.7,3.5,3.2,5,5
		c2,2.2,4.3,4.1,6.6,5.9c1,0.8,2.2,1.3,3.6,2c-1.4,0.1-2.4-0.4-3.5-0.7c-1.7-0.5-3.5-1-5.1-1.8c-3.1-1.6-6.5-2.9-9.4-5
		c-2.4-1.7-5-3-7.2-4.8c-2.1-1.8-4.5-3.2-6.6-5c-2-1.7-4.2-3.1-6.2-4.8c-2.1-1.7-4.4-3.1-6.5-4.7c-2.3-1.8-5-3.2-7.3-5
		c-2.5-1.9-5.3-3.3-8-4.9c-1.1-0.7-2.1-1.5-3.3-1.9c-0.9-0.2-1.5-0.7-2.3-1.1c-2.9-1.5-5.6-3.2-8.6-4.5c-1.5-0.7-3.1-1.4-4.7-2.1
		c-0.2-0.1-0.6-0.1-0.5-0.5c0.1-0.4,0.5-0.2,0.7-0.2c0.5,0,0.8,0.3,1.2,0.5c2,0.2,4,0.6,5.9,1C290.2,76.6,292.7,77.3,295.1,78.1"/>
	<path class="st122" d="M281.7,75c-0.7,0.3-1.1-0.8-1.9-0.1c5.6,2.2,10.9,5.1,16,8.1c-0.3,0.1,0,0.3,0,0.4c-2.3-1-4.3-2.5-6.7-3.5
		c-1.3-0.5-2.4-1.3-3.7-1.9c-2.1-1-4.1-2-6.2-2.9c-0.2-0.1-0.2-0.2-0.2-0.4C279.9,74.2,281.2,74.4,281.7,75"/>
	<path class="st123" d="M146.1,217.4c-0.6-1-0.1-2.3-0.9-3.3c-0.2-0.2-0.1-0.4-0.2-0.6c-0.4-1.1,0.5-1.8,0.8-2.6
		c0.6,0.6,0,1.6,0.5,2.2c0.3,0.2,0.2,0.5,0.1,0.7c0,0.4,0,0.7,0,1.1c-0.1,1.2,0.3,2.4,0.1,3.6C146.3,218.1,146.2,217.7,146.1,217.4"
		/>
	<path class="st124" d="M327.4,111c1.4,0.9,2.7,1.9,4,2.9c1.3,1.1,2.7,2,4.1,2.9c1.9,1.2,3.7,2.7,5.7,3.8c1.8,0.9,3.6,1.8,5.3,2.8
		c1.3,0.8,2.8,1.2,4.2,1.8c-0.3,0.1-0.6-0.1-0.9,0.2c-4.4-1.6-8.4-3.9-12.3-6.4c-2.3-1.5-4.6-3-6.6-4.7c-1.2-1.1-2.7-2-3.8-3.1
		C327.3,111,327.3,111,327.4,111"/>
	<path class="st125" d="M353.1,130.3c-1.9-0.6-3.9-0.9-5.6-1.8c-1.9-0.9-4.1-1.4-5.8-2.5c0.1-0.1,0.2-0.1,0.3,0
		c1.2,0.4,2.4,0.8,3.6,1.2c2.9,1.2,5.8,2.2,8.8,2.9C353.9,130.3,353.4,129.9,353.1,130.3"/>
	<path class="st126" d="M156.8,192.3c0.5-1.7,1.8-2.9,3.1-4c1.7-1.4,3.3-2.9,5.4-3.7c0.1-0.1,0.3-0.2,0.4-0.2c0.1,0,0.2,0,0.4,0
		c-0.6,0.7-1.4,1-2,1.5c-2.5,2.1-5.1,4.1-7.2,6.6C156.9,192.6,156.8,192.5,156.8,192.3"/>
	<path class="st127" d="M156.8,192.3c0.1,0.1,0.1,0.1,0.2,0.2c-0.2,0.5-0.6,0.8-1,1.3C156.1,193.1,156.4,192.6,156.8,192.3"/>
	<path class="st128" d="M155.6,199.7c1.6-3.2,7-9.1,8.9-9.5c-3.4,2.9-6.2,6.1-8.6,9.7C155.6,199.9,155.5,199.9,155.6,199.7"/>
	<path class="st129" d="M155.6,199.7c0.1,0.1,0.2,0.1,0.3,0.2c-0.6,1.1-1.1,2.2-2,3.1C154.3,201.8,154.6,200.6,155.6,199.7"/>
	<path class="st129" d="M153.7,204.3c0,0.4-0.2,0.6-0.6,0.6c-0.4,0.1-0.6-0.1-0.6-0.5c0-0.4,0.3-0.7,0.7-0.7
		C153.6,203.8,153.8,204,153.7,204.3"/>
	<path class="st130" d="M146.3,213.7c0.1-0.2,0-0.5-0.1-0.7c0-0.7,0-1.3,0-2c0-0.6,0.3-0.7,0.8-0.6c0,0.9,0,1.8,0.1,2.6
		C147.4,213.9,147.1,214,146.3,213.7"/>
	<path class="st53" d="M339.9,210.2c2.3,1.9,4.6,3.8,6.2,6.4c0.7,1.2,1.6,2.4,2.2,3.7c0.2,0.4,0.3,0.7,0.2,1.2
		c-0.8-1.6-1.8-3-2.7-4.4c-1.3-2-3.1-3.6-4.8-5.2c-0.3-0.3-0.5-0.6-0.7-0.9C340.4,210.6,339.5,210.7,339.9,210.2"/>
	<path class="st131" d="M340.3,215.4c1.5,2.1,3.5,3.9,4.7,6.3c-1.2-1.5-2.6-2.9-4.3-3.8c-0.3-0.1-0.2-0.4-0.2-0.6
		C340.4,216.7,340.4,216.1,340.3,215.4"/>
	<path class="st132" d="M347.2,224.8c-0.2,0.1-0.1,0.4-0.1,0.5c-0.6-1-1.2-1.9-1.8-2.9c0.1,0,0.2-0.1,0.2-0.1
		C346.2,223,346.7,223.9,347.2,224.8"/>
	<path class="st133" d="M341.9,125.9c-0.1,0-0.2,0-0.3,0c-1.3-0.2-2.3-0.8-3.4-1.4c-2.4-1.2-4.6-2.5-7-3.8c0.9-0.1,1.4,0.5,2,0.8
		c2.9,1.3,5.6,3,8.6,4.1C341.8,125.7,341.8,125.8,341.9,125.9"/>
	<path class="st134" d="M321.8,106.6c2.1,1.2,3.8,2.8,5.6,4.4l-0.2,0.1c-0.8-0.3-1.4-0.9-2.1-1.4C324,108.7,322.9,107.7,321.8,106.6
		C321.8,106.7,321.8,106.6,321.8,106.6"/>
	<path class="st135" d="M324.3,116.7c-1.6-0.7-3.1-1.7-4.4-2.8c-0.4-0.3-0.9-0.5-1-1C320.6,114.2,322.5,115.3,324.3,116.7
		C324.3,116.6,324.3,116.6,324.3,116.7"/>
	<path class="st136" d="M279.5,93c-1.2-0.5-2-1.3-3.1-2c-0.5-0.3-1-0.5-1.2-1c1.6,1,3.3,1.7,4.6,3C279.8,93,279.7,93,279.5,93"/>
	<path class="st137" d="M326.2,117.8c0.9,0.2,1.4,0.6,2,1.5C327.3,118.9,326.8,118.2,326.2,117.8L326.2,117.8z"/>
	<path class="st113" d="M279.5,93c0.1,0,0.2,0,0.3,0c0.6,0.4,1.2,0.6,1.7,1.2c0,0-0.1,0.1-0.1,0.1C280.7,94,280.1,93.4,279.5,93"/>
	<path class="st138" d="M324.3,116.6c0.6,0.4,1.4,0.6,1.9,1.2l-0.1,0.1C325.5,117.5,324.7,117.3,324.3,116.6
		C324.3,116.6,324.3,116.6,324.3,116.6"/>
	<path class="st139" d="M321.8,106.7c-0.6-0.3-1.1-0.6-1.5-1.2C320.8,105.9,321.5,106,321.8,106.7
		C321.8,106.7,321.8,106.7,321.8,106.7"/>
	<path class="st140" d="M341.3,194.3c0.1-0.2,0.3-0.2,0.5-0.1c4.1,2.3,6.9,5.7,9.3,9.5c0.2,0.2,0.2,0.4,0,0.6
		c-1.9-2.9-4.1-5.5-6.6-7.9C343.6,195.6,342.5,194.9,341.3,194.3"/>
	<path class="st141" d="M338.4,179.1c3.3,1.3,5.2,4.1,7.7,6.4c-0.6,0-2.7-1.7-3.8-3.2C341.2,181,339.6,180.2,338.4,179.1"/>
	<path class="st142" d="M351.2,204.3l0-0.6c1.8,2.7,3.2,5.5,4.3,8.5c-0.7-0.3-0.6-1-0.9-1.5c-0.6-1.2-1.3-2.5-2-3.7
		C352.1,206.1,351.6,205.2,351.2,204.3"/>
	<path class="st24" d="M339.8,161.9c1.1-0.3,1.7,0.5,2.5,0.9c2,0.9,4,2.1,5.4,3.8c0.6,0.7,1.2,1.4,1.4,2.3l-0.1,0.1
		c-1-0.7-1.4-1.8-2.3-2.6c-1.5-1.3-3.1-2.3-5-3.1C341.1,162.9,340.4,162.5,339.8,161.9L339.8,161.9z"/>
	<path class="st143" d="M342.9,156.5c-2.6-1.1-5-2.5-7.8-3.1c0.6-0.4,0.6-0.4,1.9,0C339.1,154.1,341,155.2,342.9,156.5"/>
	<path class="st144" d="M346.1,162.2c-1.8-0.6-2.9-1.9-4.6-2.6C342.5,159.6,344.9,161,346.1,162.2"/>
	<path class="st8" d="M349.3,161.9c-0.1,0-0.2,0-0.3,0c-0.6-0.3-0.6-1.1-1.2-1.4C348.7,160.7,349,161.3,349.3,161.9"/>
	<path class="st145" d="M349.2,168.9c0.4,0.1,0.5,0.5,0.6,0.9C349.3,169.6,349,169.4,349.2,168.9L349.2,168.9z"/>
	<path class="st1" d="M235,553.2c0,4.7-11.3,8.4-25.3,8.4s-25.3-3.8-25.3-8.4s11.3-8.4,25.3-8.4S235,548.5,235,553.2"/>
	<path class="st1" d="M438.8,550.7c0,4.7-11.3,8.4-25.3,8.4c-14,0-25.3-3.8-25.3-8.4s11.3-8.4,25.3-8.4
		C427.5,542.2,438.8,546,438.8,550.7"/>
</g>
</svg>
